<?xml version="1.0"?>
<svg xmlns="http://www.w3.org/2000/svg" xmlns:xlink="http://www.w3.org/1999/xlink" xmlns:svgjs="http://svgjs.com/svgjs" version="1.1" width="512" height="512" x="0" y="0" viewBox="0 0 511 511.95" style="enable-background:new 0 0 512 512" xml:space="preserve" class=""><g><path xmlns="http://www.w3.org/2000/svg" d="m380.875 35.949219h-300.601562c-14 0-25.199219 11.402343-25.199219 25.199219v32.203124h25.199219c5.601562 0 10 4.398438 10 10 0 5.597657-4.398438 10-10 10h-25.199219v36h25.199219c5.601562 0 10 4.398438 10 10 0 5.597657-4.398438 10-10 10h-25.199219v36h25.199219c5.601562 0 10 4.398438 10 10 0 5.597657-4.398438 10-10 10h-25.199219v36h25.199219c5.601562 0 10 4.398438 10 10 0 5.597657-4.398438 10-10 10h-25.199219v36h25.199219c5.601562 0 10 4.398438 10 10 0 5.597657-4.398438 10-10 10h-25.199219v36h25.199219c5.601562 0 10 4.398438 10 10 0 5.597657-4.398438 10-10 10h-25.199219v36h25.199219c5.601562 0 10 4.398438 10 10 0 5.597657-4.398438 10-10 10h-25.199219v32.199219c0 14 11.402343 25.199219 25.199219 25.199219h300.601562c14 0 25.199219-11.398438 25.199219-25.199219v-420.402343c0-13.796876-11.199219-25.199219-25.199219-25.199219zm0 0" fill="#e7e7e7" data-original="#e9e9ea" style="" class=""/><path xmlns="http://www.w3.org/2000/svg" d="m340.476562 327.550781c0-5.601562-4.402343-10-10-10h-157.203124c-5.597657 0-10 4.398438-10 10 0 5.597657 4.402343 10 10 10h157.203124c5.597657-.199219 10-4.601562 10-10zm0 0" fill="#f33535" data-original="#acdef9" style="" class=""/><path xmlns="http://www.w3.org/2000/svg" d="m340.476562 371.550781c0-5.601562-4.402343-10-10-10h-157.203124c-5.597657 0-10 4.398438-10 10 0 5.597657 4.402343 10 10 10h157.203124c5.597657-.199219 10-4.601562 10-10zm0 0" fill="#f33535" data-original="#acdef9" style="" class=""/><path xmlns="http://www.w3.org/2000/svg" d="m340.476562 415.550781c0-5.601562-4.402343-10-10-10h-157.203124c-5.597657 0-10 4.398438-10 10 0 5.597657 4.402343 10 10 10h157.203124c5.597657-.199219 10-4.601562 10-10zm0 0" fill="#f33535" data-original="#acdef9" style="" class=""/><path xmlns="http://www.w3.org/2000/svg" d="m120.476562 35.949219h-40.203124c-14 0-25.199219 11.402343-25.199219 25.199219v32.203124h25.199219c5.601562 0 10 4.398438 10 10 0 5.597657-4.398438 10-10 10h-25.199219v36h25.199219c5.601562 0 10 4.398438 10 10 0 5.597657-4.398438 10-10 10h-25.199219v36h25.199219c5.601562 0 10 4.398438 10 10 0 5.597657-4.398438 10-10 10h-25.199219v36h25.199219c5.601562 0 10 4.398438 10 10 0 5.597657-4.398438 10-10 10h-25.199219v36h25.199219c5.601562 0 10 4.398438 10 10 0 5.597657-4.398438 10-10 10h-25.199219v36h25.199219c5.601562 0 10 4.398438 10 10 0 5.597657-4.398438 10-10 10h-25.199219v36h25.199219c5.601562 0 10 4.398438 10 10 0 5.597657-4.398438 10-10 10h-25.199219v32.199219c0 14 11.402343 25.199219 25.199219 25.199219h40.402343v-470.800781zm0 0" fill="#000000" data-original="#6d6c6b" style="" class=""/><g xmlns="http://www.w3.org/2000/svg" fill="#ffcd29"><path d="m90.273438 103.550781c0-5.601562-4.398438-10-10-10h-41.398438c-5.601562 0-10 4.398438-10 10 0 5.597657 4.398438 10 10 10h41.199219c5.601562 0 10.199219-4.601562 10.199219-10zm0 0" fill="#ffcd29" data-original="#ffcd29" style="" class=""/><path d="m90.273438 159.550781c0-5.601562-4.398438-10-10-10h-41.398438c-5.601562 0-10 4.398438-10 10 0 5.597657 4.398438 10 10 10h41.199219c5.601562 0 10.199219-4.601562 10.199219-10zm0 0" fill="#ffcd29" data-original="#ffcd29" style="" class=""/><path d="m90.273438 215.550781c0-5.601562-4.398438-10-10-10h-41.398438c-5.601562 0-10 4.398438-10 10 0 5.597657 4.398438 10 10 10h41.199219c5.601562 0 10.199219-4.601562 10.199219-10zm0 0" fill="#ffcd29" data-original="#ffcd29" style="" class=""/><path d="m90.273438 271.550781c0-5.601562-4.398438-10-10-10h-41.398438c-5.601562 0-10 4.398438-10 10 0 5.597657 4.398438 10 10 10h41.199219c5.601562 0 10.199219-4.601562 10.199219-10zm0 0" fill="#ffcd29" data-original="#ffcd29" style="" class=""/><path d="m90.273438 327.550781c0-5.601562-4.398438-10-10-10h-41.398438c-5.601562 0-10 4.398438-10 10 0 5.597657 4.398438 10 10 10h41.199219c5.601562 0 10.199219-4.601562 10.199219-10zm0 0" fill="#ffcd29" data-original="#ffcd29" style="" class=""/><path d="m90.273438 383.550781c0-5.601562-4.398438-10-10-10h-41.398438c-5.601562 0-10 4.398438-10 10 0 5.597657 4.398438 10 10 10h41.199219c5.601562 0 10.199219-4.601562 10.199219-10zm0 0" fill="#ffcd29" data-original="#ffcd29" style="" class=""/><path d="m90.273438 439.550781c0-5.601562-4.398438-10-10-10h-41.398438c-5.601562 0-10 4.398438-10 10 0 5.597657 4.398438 10 10 10h41.199219c5.601562 0 10.199219-4.601562 10.199219-10zm0 0" fill="#ffcd29" data-original="#ffcd29" style="" class=""/></g><path xmlns="http://www.w3.org/2000/svg" d="m333.875 179.550781c0 45.285157-36.710938 82-82 82s-82-36.714843-82-82c0-45.289062 36.710938-82 82-82s82 36.710938 82 82zm0 0" fill="#cf0001" data-original="#ea4647" style="" class=""/><path xmlns="http://www.w3.org/2000/svg" d="m281.875 161.550781c-.601562 0-1.199219 0-1.800781.199219v2 19.398438 1.800781c6.402343 1 12.402343-3.398438 13.601562-9.800781 1-6.398438-3.402343-12.398438-9.800781-13.597657-.601562 0-1.398438 0-2 0zm0 0" fill="#f9d0b4" data-original="#f9d0b4" style="" class=""/><path xmlns="http://www.w3.org/2000/svg" d="m223.675781 182.949219v-19.398438c0-.601562 0-1.199219 0-2-6.402343-1-12.601562 3.199219-13.601562 9.597657-1 6.402343 3.199219 12.601562 9.601562 13.601562 1.398438.199219 2.597657.199219 4 0 0-.398438 0-1.199219 0-1.800781zm0 0" fill="#f9d0b4" data-original="#f9d0b4" style="" class=""/><path xmlns="http://www.w3.org/2000/svg" d="m256.074219 148.75c-10.398438 13-25.597657 11.199219-30.597657 10-.800781-.199219-1.601562.398438-1.800781 1.199219v.199219 22.800781c0 15.601562 12.597657 28.199219 28.199219 28.199219s28.199219-12.597657 28.199219-28.199219v-25.199219c0-.199219 0-.199219 0-.398438 0-.800781-.597657-1.402343-1.398438-1.402343-11.800781-.398438-18-5-20.199219-7.398438-.800781-.601562-1.601562-.601562-2.402343.199219.199219-.199219 0 0 0 0zm0 0" fill="#f9d0b4" data-original="#f9d0b4" style="" class=""/><path xmlns="http://www.w3.org/2000/svg" d="m221.875 161.550781c.601562 0 1.199219 0 1.800781.199219v-1.398438c0-.800781.597657-1.402343 1.597657-1.402343h.203124c5.199219 1 20.398438 2.800781 30.597657-10 .601562-.597657 1.402343-.800781 2.199219-.199219 0 0 0 0 .203124.199219 2.398438 2.402343 8.597657 7 20.199219 7.402343.800781 0 1.398438.597657 1.398438 1.398438v.398438 3.800781c3.601562-.597657 7.402343.601562 10 3.199219v-21.597657c0-8.800781-7.199219-16.199219-16.199219-16.199219-3 0-5.800781.796876-8.199219 2.199219-3-4.800781-8.199219-7.800781-13.800781-7.800781h-8.199219c-16 0-29 13-29.199219 29.199219v13c2-1.597657 4.597657-2.398438 7.398438-2.398438zm0 0" fill="#000000" data-original="#6d6c6b" style="" class=""/><path xmlns="http://www.w3.org/2000/svg" d="m251.875 211.148438c-4.398438 0-8.601562-1-12.601562-3v10.402343l4.402343 12.800781c.199219.796876 1 1.199219 1.800781 1.199219h13.597657c.800781 0 1.402343-.402343 1.800781-1.199219l4.398438-12.800781v-10.800781c-4 2.398438-8.796876 3.398438-13.398438 3.398438zm0 0" fill="#f9d0b4" data-original="#f9d0b4" style="" class=""/><path xmlns="http://www.w3.org/2000/svg" d="m300.476562 230.75-22-5.601562-13.203124-6.597657-4.398438 12.800781c-.199219.796876-1 1.199219-1.800781 1.199219h-13.597657c-.800781 0-1.402343-.402343-1.800781-1.199219l-4.402343-12.800781-13.199219 6.597657-22 5.601562c-4.199219 1-7.398438 4.398438-8.199219 8.800781 31.800781 29.597657 81.199219 29.398438 112.601562-.601562-1-4.199219-4-7.199219-8-8.199219zm0 0" fill="#e7e7e7" data-original="#e9e9ea" style="" class=""/><path xmlns="http://www.w3.org/2000/svg" d="m423.875 373.351562h-17.800781v102h17.800781c8.199219 0 14.800781-6.601562 14.800781-14.800781v-72.199219c.199219-8.203124-6.601562-15-14.800781-15zm0 0" fill="#55acd5" data-original="#55acd5" style="" class=""/><path xmlns="http://www.w3.org/2000/svg" d="m423.875 271.550781h-17.800781v102h17.800781c8.199219 0 14.800781-6.601562 14.800781-14.800781v-72.199219c.199219-8.402343-6.601562-15-14.800781-15zm0 0" fill="#6dcc6d" data-original="#6dcc6d" style="" class=""/><path xmlns="http://www.w3.org/2000/svg" d="m423.875 169.550781h-17.800781v102h17.800781c8.199219 0 14.800781-6.601562 14.800781-14.800781v-72.398438c.199219-8.203124-6.601562-14.800781-14.800781-14.800781zm0 0" fill="#ffcd29" data-original="#ffcd29" style="" class=""/><path xmlns="http://www.w3.org/2000/svg" d="m423.875 67.550781h-17.800781v102h17.800781c8.199219 0 14.800781-6.601562 14.800781-14.800781v-72.199219c.199219-8.199219-6.601562-15-14.800781-15zm0 0" fill="#cf0001" data-original="#ea4647" style="" class=""/><path xmlns="http://www.w3.org/2000/svg" d="m447.476562 17.949219h-3.601562v-3.597657c0-2.800781-2.199219-5-5-5s-5 2.199219-5 5v3.597657h-3.601562c-2.796876 0-5 2.199219-5 5s2.203124 5 5 5h3.601562v3.601562c0 2.800781 2.199219 5 5 5s5-2.199219 5-5v-3.601562h3.601562c2.796876 0 5-2.199219 5-5s-2.203124-5-5-5zm0 0" fill="#ffcd29" data-original="#ffcd29" style="" class=""/><path xmlns="http://www.w3.org/2000/svg" d="m394.074219 3.949219c0-.398438-.199219-.597657-.199219-1-.199219-.199219-.199219-.597657-.398438-.800781-.203124-.199219-.402343-.597657-.601562-.796876-2-1.800781-5-1.800781-7 0-.199219.199219-.398438.398438-.601562.796876-.199219.203124-.398438.601562-.398438.800781-.199219.402343-.199219.601562-.199219 1 0 .402343-.199219.601562-.199219 1 0 .402343 0 .601562.199219 1 0 .402343.199219.601562.199219 1 .199219.402343.199219.601562.398438.800781.203124.199219.402343.601562.601562.800781 2 2 5 2 7 0 .199219-.199219.398438-.402343.601562-.800781.199219-.199219.398438-.601562.398438-.800781.199219-.199219.199219-.597657.199219-1 0-.398438 0-.597657.199219-1-.199219-.398438-.199219-.800781-.199219-1zm0 0" fill="#55acd5" data-original="#55acd5" style="" class=""/><path xmlns="http://www.w3.org/2000/svg" d="m27.675781 484.148438c-6.601562-1.199219-11.800781-6.398438-13.199219-13.199219 0-.199219-.203124-.199219-.402343-.199219s-.199219.199219-.199219.199219c-1.199219 6.601562-6.398438 11.800781-13.199219 13.199219-.199219 0-.199219.203124-.199219.402343s.199219.199219.199219.199219c6.597657 1.199219 11.800781 6.398438 13.199219 13.199219 0 .199219.199219.199219.398438.199219.203124 0 .203124-.199219.203124-.199219 1.199219-6.597657 6.398438-11.800781 13.199219-13.199219.199219 0 .199219-.199219.199219-.398438 0-.203124 0-.203124-.199219-.203124zm0 0" fill="#cf0001" data-original="#ea4647" style="" class=""/><path xmlns="http://www.w3.org/2000/svg" d="m330.476562 342.351562h-157.203124c-8.199219 0-15-6.800781-15-15 0-8.203124 6.800781-15 15-15h157.203124c8.199219 0 15 6.796876 15 15 0 8.199219-6.601562 15-15 15zm-157.203124-20c-2.796876 0-5 2.199219-5 5 0 2.796876 2.203124 5 5 5h157.203124c2.796876 0 5-2.203124 5-5 0-2.800781-2.203124-5-5-5zm0 0" fill="#000000" data-original="#000000" style="" class=""/><path xmlns="http://www.w3.org/2000/svg" d="m330.476562 386.351562h-157.203124c-8.199219 0-15-6.800781-15-15 0-8.203124 6.800781-15 15-15h157.203124c8.199219 0 15 6.796876 15 15 0 8.199219-6.601562 15-15 15zm-157.203124-20c-2.796876 0-5 2.199219-5 5 0 2.796876 2.203124 5 5 5h157.203124c2.796876 0 5-2.203124 5-5 0-2.800781-2.203124-5-5-5zm0 0" fill="#000000" data-original="#000000" style="" class=""/><path xmlns="http://www.w3.org/2000/svg" d="m330.476562 430.351562h-157.203124c-8.199219 0-15-6.800781-15-15 0-8.203124 6.800781-15 15-15h157.203124c8.199219 0 15 6.796876 15 15 0 8.199219-6.601562 15-15 15zm-157.203124-20c-2.796876 0-5 2.199219-5 5 0 2.796876 2.203124 5 5 5h157.203124c2.796876 0 5-2.203124 5-5 0-2.800781-2.203124-5-5-5zm0 0" fill="#000000" data-original="#000000" style="" class=""/><path xmlns="http://www.w3.org/2000/svg" d="m380.875 511.949219h-300.601562c-16.597657 0-30.199219-13.597657-30.199219-30.199219v-32.199219c0-2.800781 2.199219-5 5-5h25.199219c2.800781 0 5-2.199219 5-5s-2.199219-5-5-5h-25.199219c-2.800781 0-5-2.199219-5-5v-36c0-2.800781 2.199219-5 5-5h25.199219c2.800781 0 5-2.199219 5-5s-2.199219-5-5-5h-25.199219c-2.800781 0-5-2.199219-5-5v-36c0-2.800781 2.199219-5 5-5h25.199219c2.800781 0 5-2.199219 5-5s-2.199219-5-5-5h-25.199219c-2.800781 0-5-2.199219-5-5v-36c0-2.800781 2.199219-5 5-5h25.199219c2.800781 0 5-2.199219 5-5s-2.199219-5-5-5h-25.199219c-2.800781 0-5-2.199219-5-5v-36c0-2.800781 2.199219-5 5-5h25.199219c2.800781 0 5-2.199219 5-5s-2.199219-5-5-5h-25.199219c-2.800781 0-5-2.199219-5-5v-36c0-2.800781 2.199219-5 5-5h25.199219c2.800781 0 5-2.199219 5-5s-2.199219-5-5-5h-25.199219c-2.800781 0-5-2.199219-5-5v-36c0-2.800781 2.199219-5 5-5h25.199219c2.800781 0 5-2.199219 5-5s-2.199219-5-5-5h-25.199219c-2.800781 0-5-2.199219-5-5v-32.402343c0-16.597657 13.601562-30.199219 30.199219-30.199219h300.601562c16.601562 0 30.199219 13.601562 30.199219 30.199219v420.601562c0 16.601562-13.398438 30.199219-30.199219 30.199219zm-320.800781-57.597657v27.199219c0 11.199219 9 20.199219 20.199219 20.199219h300.601562c11.199219 0 20.199219-9 20.199219-20.199219v-420.402343c0-11.199219-9-20.199219-20.199219-20.199219h-300.601562c-11.199219 0-20.199219 9-20.199219 20.199219v27.203124h20.199219c8.203124 0 15 6.796876 15 15 0 8.199219-6.796876 15-15 15h-20.199219v26h20.199219c8.203124 0 15 6.796876 15 15 0 8.199219-6.796876 15-15 15h-20.199219v26h20.199219c8.203124 0 15 6.796876 15 15 0 8.199219-6.796876 15-15 15h-20.199219v26h20.199219c8.203124 0 15 6.796876 15 15 0 8.199219-6.796876 15-15 15h-20.199219v26h20.199219c8.203124 0 15 6.796876 15 15 0 8.199219-6.796876 15-15 15h-20.199219v26h20.199219c8.203124 0 15 6.796876 15 15 0 8.199219-6.796876 15-15 15h-20.199219v26h20.199219c8.203124 0 15 6.796876 15 15 0 8.199219-6.796876 15-15 15zm0 0" fill="#000000" data-original="#000000" style="" class=""/><path xmlns="http://www.w3.org/2000/svg" d="m423.875 480.351562h-17.800781c-2.800781 0-5-2.203124-5-5v-102c0-2.800781 2.199219-5 5-5h17.800781c11 0 19.800781 9 19.800781 20v72.199219c.199219 10.800781-8.800781 19.800781-19.800781 19.800781zm-12.800781-10h12.800781c5.398438 0 9.800781-4.402343 9.800781-10v-72.203124c0-5.398438-4.402343-9.796876-9.800781-10h-12.800781zm0 0" fill="#000000" data-original="#000000" style="" class=""/><path xmlns="http://www.w3.org/2000/svg" d="m423.875 378.351562h-17.800781c-2.800781 0-5-2.203124-5-5v-102c0-2.800781 2.199219-5 5-5h17.800781c11 0 19.800781 9 19.800781 19.796876v72.203124c.199219 11.199219-8.800781 20-19.800781 20zm-12.800781-10h12.800781c5.398438 0 9.800781-4.402343 9.800781-9.800781v-72.199219c0-5.402343-4.402343-9.800781-9.800781-9.800781h-12.800781zm0 0" fill="#000000" data-original="#000000" style="" class=""/><path xmlns="http://www.w3.org/2000/svg" d="m423.875 276.351562h-17.800781c-2.800781 0-5-2.203124-5-5v-102c0-2.800781 2.199219-5 5-5h17.800781c11 0 19.800781 9 19.800781 19.796876v72.203124c.199219 11.199219-8.800781 20-19.800781 20zm-12.800781-10h12.800781c5.398438 0 9.800781-4.402343 9.800781-9.800781v-72.199219c0-5.402343-4.402343-9.800781-9.800781-9.800781h-12.800781zm0 0" fill="#000000" data-original="#000000" style="" class=""/><path xmlns="http://www.w3.org/2000/svg" d="m423.875 174.550781h-17.800781c-2.800781 0-5-2.199219-5-5v-102c0-2.800781 2.199219-5 5-5h17.800781c11 0 19.800781 9 19.800781 20v72.199219c.199219 10.800781-8.800781 19.800781-19.800781 19.800781zm-12.800781-10h12.800781c5.398438 0 9.800781-4.402343 9.800781-9.800781v-72.199219c0-5.402343-4.402343-9.800781-9.800781-10h-12.800781zm0 0" fill="#000000" data-original="#000000" style="" class=""/><path xmlns="http://www.w3.org/2000/svg" d="m120.675781 511.949219h-40.402343c-16.597657 0-30.199219-13.597657-30.199219-30.199219v-32.199219c0-2.800781 2.199219-5 5-5h25.199219c2.800781 0 5-2.199219 5-5s-2.199219-5-5-5h-25.199219c-2.800781 0-5-2.199219-5-5v-36c0-2.800781 2.199219-5 5-5h25.199219c2.800781 0 5-2.199219 5-5s-2.199219-5-5-5h-25.199219c-2.800781 0-5-2.199219-5-5v-36c0-2.800781 2.199219-5 5-5h25.199219c2.800781 0 5-2.199219 5-5s-2.199219-5-5-5h-25.199219c-2.800781 0-5-2.199219-5-5v-36c0-2.800781 2.199219-5 5-5h25.199219c2.800781 0 5-2.199219 5-5s-2.199219-5-5-5h-25.199219c-2.800781 0-5-2.199219-5-5v-36c0-2.800781 2.199219-5 5-5h25.199219c2.800781 0 5-2.199219 5-5s-2.199219-5-5-5h-25.199219c-2.800781 0-5-2.199219-5-5v-36c0-2.800781 2.199219-5 5-5h25.199219c2.800781 0 5-2.199219 5-5s-2.199219-5-5-5h-25.199219c-2.800781 0-5-2.199219-5-5v-36c0-2.800781 2.199219-5 5-5h25.199219c2.800781 0 5-2.199219 5-5s-2.199219-5-5-5h-25.199219c-2.800781 0-5-2.199219-5-5v-32.402343c0-16.597657 13.601562-30.199219 30.199219-30.199219h40.402343c2.800781 0 5 2.199219 5 5v471c0 2.800781-2.402343 5-5 5zm-60.601562-57.597657v27.199219c0 11.199219 9 20.199219 20.199219 20.199219h35.402343v-460.800781h-35.402343c-11.199219 0-20.199219 9-20.199219 20.199219v27.203124h20.199219c8.203124 0 15 6.796876 15 15 0 8.199219-6.796876 15-15 15h-20.199219v26h20.199219c8.203124 0 15 6.796876 15 15 0 8.199219-6.796876 15-15 15h-20.199219v26h20.199219c8.203124 0 15 6.796876 15 15 0 8.199219-6.796876 15-15 15h-20.199219v26h20.199219c8.203124 0 15 6.796876 15 15 0 8.199219-6.796876 15-15 15h-20.199219v26h20.199219c8.203124 0 15 6.796876 15 15 0 8.199219-6.796876 15-15 15h-20.199219v26h20.199219c8.203124 0 15 6.796876 15 15 0 8.199219-6.796876 15-15 15h-20.199219v26h20.199219c8.203124 0 15 6.796876 15 15 0 8.199219-6.796876 15-15 15zm0 0" fill="#000000" data-original="#000000" style="" class=""/><path xmlns="http://www.w3.org/2000/svg" d="m80.273438 118.351562h-41.398438c-8.199219 0-15-6.800781-15-15 0-8.203124 6.800781-15 15-15h41.199219c8.199219 0 15 6.796876 15 15 0 8.199219-6.597657 15-14.800781 15zm-41.398438-20c-2.800781 0-5 2.199219-5 5 0 2.796876 2.199219 5 5 5h41.199219c2.800781 0 5-2.203124 5-5 0-2.800781-2.199219-5-5-5zm0 0" fill="#000000" data-original="#000000" style="" class=""/><path xmlns="http://www.w3.org/2000/svg" d="m80.273438 174.351562h-41.398438c-8.199219 0-15-6.800781-15-15 0-8.203124 6.800781-15 15-15h41.199219c8.199219 0 15 6.796876 15 15 0 8.199219-6.597657 15-14.800781 15zm-41.398438-20c-2.800781 0-5 2.199219-5 5 0 2.796876 2.199219 5 5 5h41.199219c2.800781 0 5-2.203124 5-5 0-2.800781-2.199219-5-5-5zm0 0" fill="#000000" data-original="#000000" style="" class=""/><path xmlns="http://www.w3.org/2000/svg" d="m80.273438 230.351562h-41.398438c-8.199219 0-15-6.800781-15-15 0-8.203124 6.800781-15 15-15h41.199219c8.199219 0 15 6.796876 15 15 0 8.199219-6.597657 15-14.800781 15zm-41.398438-20c-2.800781 0-5 2.199219-5 5 0 2.796876 2.199219 5 5 5h41.199219c2.800781 0 5-2.203124 5-5 0-2.800781-2.199219-5-5-5zm0 0" fill="#000000" data-original="#000000" style="" class=""/><path xmlns="http://www.w3.org/2000/svg" d="m80.273438 286.351562h-41.398438c-8.199219 0-15-6.800781-15-15 0-8.203124 6.800781-15 15-15h41.199219c8.199219 0 15 6.796876 15 15 0 8.199219-6.597657 15-14.800781 15zm-41.398438-20c-2.800781 0-5 2.199219-5 5 0 2.796876 2.199219 5 5 5h41.199219c2.800781 0 5-2.203124 5-5 0-2.800781-2.199219-5-5-5zm0 0" fill="#000000" data-original="#000000" style="" class=""/><path xmlns="http://www.w3.org/2000/svg" d="m80.273438 342.351562h-41.398438c-8.199219 0-15-6.800781-15-15 0-8.203124 6.800781-15 15-15h41.199219c8.199219 0 15 6.796876 15 15 0 8.199219-6.597657 15-14.800781 15zm-41.398438-20c-2.800781 0-5 2.199219-5 5 0 2.796876 2.199219 5 5 5h41.199219c2.800781 0 5-2.203124 5-5 0-2.800781-2.199219-5-5-5zm0 0" fill="#000000" data-original="#000000" style="" class=""/><path xmlns="http://www.w3.org/2000/svg" d="m80.273438 398.351562h-41.398438c-8.199219 0-15-6.800781-15-15 0-8.203124 6.800781-15 15-15h41.199219c8.199219 0 15 6.796876 15 15 0 8.199219-6.597657 15-14.800781 15zm-41.398438-20c-2.800781 0-5 2.199219-5 5 0 2.796876 2.199219 5 5 5h41.199219c2.800781 0 5-2.203124 5-5 0-2.800781-2.199219-5-5-5zm0 0" fill="#000000" data-original="#000000" style="" class=""/><path xmlns="http://www.w3.org/2000/svg" d="m80.273438 454.351562h-41.398438c-8.199219 0-15-6.800781-15-15 0-8.203124 6.800781-15 15-15h41.199219c8.199219 0 15 6.796876 15 15 0 8.199219-6.597657 15-14.800781 15zm-41.398438-20c-2.800781 0-5 2.199219-5 5 0 2.796876 2.199219 5 5 5h41.199219c2.800781 0 5-2.203124 5-5 0-2.800781-2.199219-5-5-5zm0 0" fill="#000000" data-original="#000000" style="" class=""/><path xmlns="http://www.w3.org/2000/svg" d="m251.875 266.550781c-48 0-87-39-87-87s39-87 87-87 87 39 87 87-39 86.800781-87 87zm0-164c-42.601562 0-77 34.398438-77 77 0 42.597657 34.398438 77 77 77s77-34.402343 77-77c0-42.601562-34.398438-77-77-77zm0 0" fill="#231f20" data-original="#231f20" style="" class=""/><path xmlns="http://www.w3.org/2000/svg" d="m281.875 190.148438c-.800781 0-1.800781 0-2.601562-.199219-2.597657-.398438-4.398438-2.597657-4.199219-5.199219 0-.601562 0-1 0-1.601562v-19.398438c0-.601562 0-1 0-1.601562-.199219-2.597657 1.601562-4.796876 4.199219-5.199219 9.203124-1.398438 17.800781 4.800781 19.203124 13.800781 1.398438 9.199219-4.800781 17.800781-13.800781 19.199219-1 0-1.800781.199219-2.800781.199219zm3.199219-22.796876v12c3.402343-1.800781 4.601562-5.800781 2.800781-9.203124-.601562-1.199219-1.601562-2.199219-2.800781-2.796876zm0 0" fill="#231f20" data-original="#231f20" style="" class=""/><path xmlns="http://www.w3.org/2000/svg" d="m221.875 190.148438c-9.199219 0-16.800781-7.398438-17-16.597657 0-9.199219 7.398438-16.800781 16.601562-17 1 0 2 0 3 .199219 2.597657.398438 4.398438 2.601562 4.199219 5.199219v1.601562 19.398438 1.601562c.199219 2.597657-1.601562 4.800781-4.199219 5.199219-.800781.199219-1.800781.199219-2.601562.398438zm-3.199219-22.796876c-3.402343 1.796876-4.601562 5.796876-2.800781 9.199219.601562 1.199219 1.601562 2.199219 2.800781 2.800781zm0 0" fill="#231f20" data-original="#231f20" style="" class=""/><path xmlns="http://www.w3.org/2000/svg" d="m251.875 216.148438c-18.398438 0-33.199219-14.796876-33.199219-33.199219v-22.597657c0-3.601562 3-6.601562 6.597657-6.601562.402343 0 .800781 0 1.402343.199219 5 1 17.199219 2.199219 25.800781-8.199219 1.199219-1.398438 2.796876-2.398438 4.796876-2.398438 1.800781-.203124 3.601562.597657 5 1.796876 1.800781 1.601562 6.800781 5.601562 17 5.800781 3.402343.199219 6.203124 3 6.402343 6.402343v25.796876c-.601562 18.203124-15.402343 33-33.800781 33zm-23.199219-51.796876v18.597657c0 12.800781 10.398438 23.199219 23.199219 23.199219s23.199219-10.398438 23.199219-23.199219v-22.199219c-6.199219-.398438-12.199219-2.601562-17.398438-6.199219-9.601562 9.800781-22 10.398438-29 9.800781zm31.398438-12.402343" fill="#231f20" data-original="#231f20" style="" class=""/><path xmlns="http://www.w3.org/2000/svg" d="m290.074219 169.75c-1.199219 0-2.597657-.601562-3.398438-1.398438-1.199219-1.203124-3-2-4.800781-2-.398438 0-.800781 0-1 0-2.800781.398438-5.199219-1.402343-5.800781-4.203124 0-.199219 0-.597657 0-.796876v-1c-6.199219-.402343-12.199219-2.601562-17.398438-6.203124-10 10.203124-22.800781 10.601562-29.800781 9.800781-1 1.800781-3 2.601562-5 2.402343-.398438 0-.800781 0-1 0-1.601562 0-3 .597657-4.199219 1.398438-2.199219 1.800781-5.402343 1.398438-7-.800781-.800781-.800781-1-2-1-3.199219v-13c0-18.800781 15.199219-34.199219 34.199219-34.199219h8.199219c5.800781 0 11.402343 2.398438 15.402343 6.597657 2.199219-.796876 4.398438-1.199219 6.597657-1.199219 11.601562 0 21.199219 9.402343 21.199219 21.199219v21.203124c-.199219 3.199219-2.398438 5.398438-5.199219 5.398438zm-5-13v-13.199219c0-6.199219-5-11.199219-11-11.199219-2 0-4 .597657-5.800781 1.597657-2.398438 1.402343-5.398438.601562-6.796876-1.800781-2-3.398438-5.601562-5.398438-9.601562-5.398438h-8.199219c-13.402343 0-24.199219 10.800781-24.199219 24.199219v5.601562h.398438c1.398438-2.199219 4.199219-3.199219 6.601562-2.601562 5 1 17.199219 2.199219 25.796876-8.199219 2.203124-2.800781 6.402343-3.199219 9.203124-1 .199219.199219.398438.199219.597657.398438 1.800781 1.601562 6.800781 5.601562 17 5.800781 3 0 5.601562 2.601562 6 5.800781zm0 0" fill="#231f20" data-original="#231f20" style="" class=""/><path xmlns="http://www.w3.org/2000/svg" d="m259.074219 237.75h-13.597657c-3 0-5.601562-1.800781-6.402343-4.601562l-4.398438-12.796876c-.199219-.601562-.199219-1-.199219-1.601562v-10.398438c0-2.800781 2.199219-5 5-5 .796876 0 1.597657.199219 2.199219.597657 3.199219 1.601562 6.800781 2.402343 10.398438 2.402343 3.800781 0 7.601562-1 11-2.800781 2.402343-1.402343 5.402343-.402343 6.800781 2 .398438.800781.601562 1.597657.601562 2.398438v10.800781c0 .601562 0 1.199219-.203124 1.601562l-4.398438 12.796876c-1.199219 2.800781-3.800781 4.601562-6.800781 4.601562zm-11.398438-10h9.199219l3.398438-9.800781v-2.597657c-5.199219 1.398438-10.796876 1.398438-16 .199219v2.398438zm0 0" fill="#231f20" data-original="#231f20" style="" class=""/><path xmlns="http://www.w3.org/2000/svg" d="m251.875 266.550781c-22 0-43.199219-8.402343-59.398438-23.402343-1.203124-1.199219-1.800781-3-1.601562-4.597657 1.199219-6.199219 5.800781-11 11.800781-12.601562l21.398438-5.398438 12.800781-6.199219c2.398438-1.203124 5.398438-.203124 6.601562 2.199219 0 .199219.199219.398438.199219.597657l3.800781 10.601562h9.199219l3.800781-10.601562c1-2.597657 3.796876-4 6.398438-3 .199219 0 .398438.203124.601562.203124l12.796876 6.199219 21.402343 5.398438c5.800781 1.402343 10.199219 6 11.597657 11.601562.402343 1.800781 0 3.597657-1.398438 4.800781-16.199219 15.597657-37.601562 24.199219-60 24.199219zm-50-28.601562c29 24.800781 71.800781 24.601562 100.601562-.398438-.800781-1-2-1.601562-3.203124-2l-22-5.601562c-.398438 0-.597657-.199219-1-.398438l-8.199219-4-2.597657 7.398438c-1 2.800781-3.601562 4.601562-6.402343 4.601562h-13.597657c-3 0-5.601562-1.800781-6.402343-4.601562l-2.597657-7.398438-8.203124 4c-.398438.199219-.597657.199219-1 .398438l-22 5.601562c-1.398438.398438-2.597657 1.199219-3.398438 2.398438zm0 0" fill="#231f20" data-original="#231f20" style="" class=""/></g></svg>
