<svg id="Capa_1" enable-background="new 0 0 512 512" height="512" viewBox="0 0 512 512" width="512" xmlns="http://www.w3.org/2000/svg"><g><g><g fill="#ffe07d"><circle cx="41.228" cy="167.038" r="16.032"/><circle cx="470.772" cy="344.962" r="16.032"/><circle cx="167.038" cy="470.772" r="16.032"/><circle cx="344.962" cy="41.228" r="16.032"/><circle cx="41.228" cy="344.962" r="16.032"/><circle cx="470.772" cy="167.038" r="16.032"/><circle cx="344.962" cy="470.772" r="16.032"/><circle cx="167.038" cy="41.228" r="16.032"/><circle cx="91.62" cy="91.62" r="16.032"/><circle cx="420.38" cy="420.38" r="16.032"/><circle cx="91.62" cy="420.38" r="16.032"/><circle cx="420.38" cy="91.62" r="16.032"/><circle cx="23.532" cy="256" r="16.032"/><circle cx="488.468" cy="256" r="16.032"/><circle cx="256" cy="488.468" r="16.032"/><circle cx="256" cy="23.532" r="16.032"/></g><circle cx="256" cy="256" fill="#ff8086" r="168.339"/><circle cx="256" cy="256" fill="#db4655" r="136.274"/><path d="m256 119.726c-44.794 0-84.417 21.709-109.256 55.074 22.695-16.896 50.731-27.018 81.2-27.018 75.262 0 136.274 61.012 136.274 136.274 0 30.469-10.122 58.505-27.018 81.2 33.365-24.84 55.074-64.463 55.074-109.256 0-75.262-61.012-136.274-136.274-136.274z" fill="#bd4150"/></g><g><path d="m466.168 263.5c3.139 9.308 11.946 16.032 22.3 16.032 12.975 0 23.532-10.556 23.532-23.532s-10.557-23.532-23.532-23.532c-10.354 0-19.16 6.724-22.3 16.032h-34.508c-.277-6.542-.9-13.024-1.886-19.418l16.38-3.258c4.062-.809 6.701-4.757 5.893-8.819s-4.757-6.701-8.819-5.893l-16.382 3.259c-1.542-6.344-3.434-12.575-5.659-18.674l31.86-13.197c2.356 2.707 5.308 4.867 8.72 6.28 2.904 1.203 5.954 1.804 9.005 1.804s6.102-.602 9.005-1.804c5.807-2.405 10.331-6.928 12.736-12.735 2.406-5.808 2.405-12.204 0-18.011-2.405-5.808-6.928-10.33-12.735-12.736-5.808-2.405-12.204-2.405-18.011 0-5.807 2.406-10.33 6.928-12.735 12.736-1.413 3.412-1.973 7.027-1.725 10.607l-31.851 13.193c-2.745-5.903-5.816-11.648-9.201-17.21l13.877-9.272c3.444-2.301 4.37-6.959 2.069-10.403s-6.958-4.37-10.403-2.069l-13.886 9.278c-3.835-5.237-7.965-10.272-12.382-15.08l24.378-24.378c3.214 1.601 6.777 2.453 10.473 2.453 6.286 0 12.195-2.448 16.64-6.892 4.445-4.445 6.893-10.354 6.893-16.64s-2.448-12.195-6.893-16.64c-4.444-4.444-10.354-6.893-16.64-6.893-6.285 0-12.195 2.448-16.64 6.893-7.319 7.32-8.78 18.294-4.422 27.095l-24.391 24.391c-4.767-4.374-9.809-8.496-15.093-12.365l9.287-13.898c2.301-3.444 1.375-8.102-2.069-10.403s-8.102-1.375-10.403 2.069l-27.14 40.617c-11.741-7.014-24.556-12.404-38.14-15.854l3.339-16.788c7.771 1.921 15.401 4.426 22.857 7.519 3.813 1.581 8.184-.218 9.783-4.018h.001l16.007-38.645c.526.036 1.051.06 1.574.06 9.238 0 18.022-5.475 21.772-14.527 4.965-11.988-.748-25.781-12.736-30.746-5.807-2.405-12.204-2.406-18.011 0s-10.33 6.928-12.735 12.735-2.406 12.204 0 18.011c1.413 3.412 3.574 6.364 6.281 8.72l-13.188 31.836c-6.133-2.242-12.363-4.132-18.678-5.667l3.252-16.351c.808-4.062-1.83-8.011-5.893-8.819-4.061-.807-8.011 1.831-8.819 5.893l-3.255 16.364c-6.406-.983-12.885-1.611-19.422-1.883v-34.495c9.308-3.14 16.032-11.946 16.032-22.3.001-12.975-10.555-23.532-23.531-23.532s-23.532 10.557-23.532 23.532c0 10.354 6.724 19.16 16.032 22.3v34.5c-6.571.277-13.052.906-19.42 1.889l-3.257-16.374c-.809-4.062-4.756-6.7-8.819-5.893-4.063.808-6.701 4.756-5.893 8.819l3.258 16.381c-6.365 1.551-12.599 3.438-18.673 5.662l-13.198-31.862c2.707-2.356 4.867-5.308 6.281-8.72 2.406-5.808 2.405-12.204 0-18.011-2.405-5.808-6.928-10.33-12.735-12.736-5.808-2.405-12.203-2.405-18.011 0-11.988 4.965-17.701 18.758-12.736 30.747 3.75 9.053 12.533 14.527 21.772 14.527.523 0 1.048-.024 1.574-.06l13.207 31.884c-5.915 2.762-11.656 5.835-17.191 9.214l-9.308-13.93c-2.301-3.444-6.958-4.37-10.403-2.069-3.444 2.301-4.37 6.959-2.069 10.403l9.325 13.956c-5.248 3.851-10.277 7.982-15.061 12.378l-24.461-24.461c4.359-8.801 2.898-19.775-4.422-27.095-4.445-4.444-10.354-6.893-16.64-6.893s-12.195 2.448-16.64 6.893-6.893 10.354-6.893 16.64 2.448 12.195 6.893 16.64c4.444 4.445 10.354 6.893 16.64 6.893 3.696 0 7.258-.853 10.473-2.453l24.443 24.443c-4.396 4.784-8.527 9.813-12.378 15.062l-13.956-9.325c-3.444-2.301-8.102-1.375-10.403 2.069s-1.375 8.102 2.069 10.403l13.929 9.307c-3.379 5.536-6.452 11.277-9.214 17.191l-31.891-13.209c.248-3.58-.312-7.195-1.725-10.607-2.405-5.808-6.928-10.33-12.735-12.736-5.808-2.406-12.204-2.405-18.011 0-5.807 2.406-10.33 6.928-12.735 12.735s-2.406 12.204 0 18.011c2.405 5.807 6.929 10.33 12.736 12.735 2.903 1.203 5.955 1.804 9.005 1.804s6.102-.601 9.005-1.804c3.412-1.413 6.364-3.574 8.72-6.28l31.862 13.197c-2.225 6.074-4.111 12.309-5.662 18.673l-16.38-3.258c-4.068-.808-8.011 1.83-8.819 5.893s1.83 8.011 5.893 8.819l16.374 3.257c-.982 6.368-1.611 12.849-1.888 19.42h-34.5c-3.139-9.308-11.946-16.032-22.3-16.032-12.975-.001-23.532 10.555-23.532 23.531s10.557 23.532 23.532 23.532c10.354 0 19.16-6.724 22.3-16.032h34.5c.277 6.571.906 13.052 1.888 19.42l-16.374 3.257c-4.062.809-6.701 4.757-5.893 8.819.71 3.569 3.843 6.038 7.348 6.038.485 0 .978-.047 1.471-.146l16.38-3.258c1.551 6.365 3.438 12.599 5.662 18.673l-31.862 13.198c-2.356-2.707-5.308-4.868-8.72-6.281-5.808-2.405-12.203-2.405-18.011 0-5.807 2.405-10.331 6.928-12.736 12.735-2.406 5.808-2.405 12.204 0 18.011 2.405 5.808 6.928 10.33 12.735 12.736 2.904 1.203 5.955 1.804 9.006 1.804 3.05 0 6.102-.602 9.005-1.804 5.807-2.406 10.33-6.928 12.735-12.736 1.413-3.412 1.973-7.027 1.725-10.607l31.891-13.21c2.762 5.915 5.835 11.655 9.214 17.191l-13.929 9.307c-3.444 2.301-4.37 6.959-2.069 10.403 1.446 2.164 3.822 3.334 6.243 3.334 1.432 0 2.88-.41 4.16-1.265l13.955-9.325c3.851 5.248 7.982 10.277 12.378 15.062l-24.441 24.444c-3.214-1.601-6.777-2.453-10.473-2.453-6.286 0-12.195 2.448-16.64 6.892-4.445 4.445-6.893 10.354-6.893 16.64s2.448 12.195 6.893 16.64c4.444 4.444 10.354 6.893 16.64 6.893 6.285 0 12.195-2.448 16.64-6.893 7.319-7.32 8.78-18.294 4.422-27.095l24.461-24.461c4.784 4.396 9.813 8.527 15.061 12.378l-9.325 13.956c-2.301 3.444-1.375 8.102 2.069 10.403 1.28.855 2.728 1.265 4.16 1.265 2.421 0 4.797-1.17 6.243-3.334l9.308-13.93c5.536 3.379 11.277 6.452 17.191 9.214l-13.207 31.885c-9.8-.661-19.383 4.901-23.345 14.466-4.965 11.988.748 25.781 12.736 30.746 2.904 1.203 5.954 1.804 9.005 1.804 3.05 0 6.102-.602 9.005-1.804 5.807-2.406 10.33-6.928 12.735-12.735s2.406-12.204 0-18.011c-1.413-3.412-3.574-6.364-6.281-8.72l13.198-31.862c6.074 2.224 12.309 4.111 18.673 5.662l-3.258 16.381c-.808 4.062 1.83 8.011 5.893 8.819.494.098.986.146 1.471.146 3.505 0 6.638-2.47 7.348-6.039l3.257-16.374c6.367.982 12.849 1.611 19.42 1.889v34.5c-9.308 3.14-16.032 11.946-16.032 22.3 0 12.975 10.556 23.532 23.532 23.532s23.532-10.557 23.532-23.532c0-10.354-6.724-19.16-16.032-22.3v-34.5c6.571-.277 13.052-.906 19.42-1.889l3.257 16.374c.71 3.569 3.843 6.039 7.348 6.039.485 0 .977-.047 1.471-.146 4.063-.808 6.701-4.756 5.893-8.819l-3.258-16.381c6.365-1.551 12.599-3.438 18.673-5.662l13.198 31.862c-2.707 2.356-4.867 5.308-6.281 8.72-2.406 5.808-2.405 12.204 0 18.011 2.405 5.808 6.928 10.33 12.735 12.736 2.904 1.203 5.955 1.804 9.005 1.804s6.102-.602 9.005-1.804c11.988-4.965 17.701-18.758 12.736-30.747-3.963-9.565-13.545-15.129-23.346-14.467l-13.207-31.884c5.914-2.762 11.655-5.835 17.191-9.214l9.308 13.93c1.446 2.164 3.822 3.334 6.243 3.334 1.432 0 2.88-.409 4.16-1.265 3.444-2.301 4.37-6.959 2.069-10.403l-9.325-13.956c5.248-3.851 10.277-7.982 15.061-12.378l24.461 24.461c-4.359 8.801-2.898 19.775 4.422 27.095 4.445 4.444 10.354 6.893 16.64 6.893s12.195-2.448 16.64-6.893 6.893-10.354 6.893-16.64-2.448-12.195-6.893-16.64c-4.444-4.445-10.354-6.893-16.64-6.893-3.696 0-7.258.853-10.473 2.453l-24.443-24.443c4.396-4.784 8.527-9.813 12.378-15.062l13.955 9.325c1.28.855 2.728 1.265 4.16 1.265 2.421 0 4.797-1.17 6.243-3.334 2.301-3.444 1.375-8.102-2.069-10.403l-13.929-9.307c3.379-5.536 6.452-11.277 9.214-17.191l31.891 13.209c-.248 3.58.312 7.195 1.725 10.607 2.405 5.808 6.928 10.33 12.735 12.736 2.904 1.203 5.955 1.804 9.005 1.804 3.051 0 6.102-.602 9.006-1.804 5.807-2.406 10.33-6.928 12.735-12.735s2.406-12.204 0-18.011c-2.405-5.807-6.929-10.33-12.736-12.735-5.807-2.406-12.203-2.406-18.011 0-3.412 1.413-6.364 3.574-8.72 6.28l-31.862-13.197c2.224-6.074 4.111-12.309 5.662-18.673l16.38 3.258c.494.099.986.146 1.471.146 3.505 0 6.638-2.47 7.348-6.038.808-4.062-1.83-8.011-5.893-8.819l-16.374-3.257c.982-6.368 1.611-12.849 1.889-19.42zm-3.279-99.727c.873-2.105 2.512-3.746 4.618-4.618 1.053-.436 2.159-.654 3.265-.654s2.212.218 3.266.654c2.105.872 3.745 2.512 4.617 4.618.873 2.105.873 4.425 0 6.53-.872 2.105-2.512 3.745-4.618 4.617-2.105.872-4.424.873-6.53 0-2.105-.872-3.745-2.512-4.617-4.617-.873-2.105-.873-4.424-.001-6.53zm-125.81-125.811c.872-2.105 2.512-3.745 4.617-4.618 1.053-.436 2.159-.654 3.265-.654s2.212.218 3.265.654c4.347 1.8 6.418 6.801 4.618 11.147s-6.8 6.417-11.146 4.619c0 0-.001 0-.002-.001 0 0-.001 0-.002 0-2.104-.873-3.743-2.512-4.616-4.617-.871-2.104-.871-4.424.001-6.53zm-177.923 6.531c-1.8-4.347.271-9.348 4.618-11.148 1.053-.436 2.159-.654 3.265-.654s2.212.218 3.265.654c2.105.873 3.745 2.512 4.617 4.618.873 2.105.873 4.425 0 6.53s-2.512 3.745-4.618 4.617c-4.345 1.801-9.346-.27-11.147-4.617zm-110.046 125.811c-.872 2.105-2.512 3.745-4.617 4.617-2.106.873-4.425.873-6.53 0-2.106-.872-3.746-2.512-4.618-4.617-.873-2.105-.873-4.425 0-6.53.872-2.105 2.512-3.746 4.617-4.618 1.053-.436 2.159-.654 3.266-.654 1.106 0 2.212.218 3.265.654 2.105.872 3.745 2.512 4.618 4.618.872 2.105.872 4.424-.001 6.53zm.001 177.923c-.873 2.105-2.512 3.746-4.618 4.618-2.106.873-4.425.873-6.531 0-2.105-.872-3.745-2.512-4.617-4.618-.873-2.105-.873-4.425 0-6.53.872-2.105 2.512-3.745 4.618-4.617 1.053-.436 2.159-.654 3.265-.654s2.212.218 3.265.654c2.105.872 3.745 2.512 4.617 4.617.873 2.105.873 4.424.001 6.53zm125.81 125.811c-.872 2.105-2.512 3.745-4.617 4.618-2.105.872-4.424.872-6.53 0-4.347-1.8-6.418-6.801-4.618-11.148 1.8-4.347 6.802-6.417 11.148-4.618 2.105.873 3.745 2.512 4.618 4.618.871 2.104.871 4.424-.001 6.53zm177.923-6.531c1.8 4.347-.271 9.348-4.618 11.148-2.105.873-4.424.873-6.53 0-2.105-.873-3.745-2.512-4.617-4.618-.873-2.105-.873-4.425 0-6.53s2.512-3.745 4.618-4.617c1.064-.441 2.167-.65 3.254-.65 3.349 0 6.534 1.985 7.893 5.267zm114.663-130.428c2.106-.873 4.425-.873 6.53 0 2.106.872 3.746 2.512 4.618 4.617.873 2.105.873 4.425 0 6.53-.872 2.105-2.512 3.746-4.617 4.618-2.106.873-4.425.873-6.531 0-2.105-.872-3.745-2.512-4.618-4.618-.872-2.105-.872-4.425 0-6.53.873-2.105 2.512-3.745 4.618-4.617zm20.961-89.611c4.705 0 8.532 3.828 8.532 8.532s-3.828 8.532-8.532 8.532-8.532-3.828-8.532-8.532 3.827-8.532 8.532-8.532zm-76.344-30.17-16.756 3.333c-3.449-13.584-8.839-26.4-15.853-38.141l14.249-9.521c8.276 13.727 14.483 28.657 18.36 44.329zm-156.124 167.476c-71.006 0-128.774-57.768-128.774-128.774s57.768-128.774 128.774-128.774 128.774 57.768 128.774 128.774-57.768 128.774-128.774 128.774zm158.346-299.187c1.612-1.612 3.754-2.5 6.033-2.5s4.421.888 6.033 2.5 2.499 3.754 2.499 6.033-.887 4.421-2.499 6.033c-1.612 1.612-3.754 2.499-6.033 2.499s-4.421-.888-6.033-2.499c-3.326-3.326-3.326-8.739 0-12.066zm-62.854 40.998c13.1 9.675 24.495 21.127 33.936 33.913l-14.259 9.527c-8.285-11.069-18.126-20.91-29.195-29.195zm-95.492-111.585c4.705 0 8.532 3.828 8.532 8.532s-3.828 8.532-8.532 8.532-8.532-3.828-8.532-8.532 3.827-8.532 8.532-8.532zm0 80.161c8.097 0 16.105.595 23.993 1.772l-3.338 16.782c-6.748-.975-13.642-1.49-20.655-1.49s-13.908.515-20.655 1.49l-3.334-16.764c7.828-1.175 15.838-1.79 23.989-1.79zm-38.701 4.719 3.332 16.753c-13.584 3.449-26.4 8.839-38.14 15.854l-9.492-14.206c13.588-8.221 28.487-14.48 44.3-18.401zm-131.712-2.227c-1.612-1.611-2.499-3.754-2.499-6.033s.887-4.421 2.499-6.034c1.612-1.611 3.754-2.499 6.033-2.499s4.421.888 6.033 2.499c3.327 3.327 3.327 8.74 0 12.066-1.612 1.612-3.754 2.5-6.033 2.5-2.279.001-4.421-.886-6.033-2.499zm74.955 28.983 9.485 14.195c-11.07 8.285-20.911 18.125-29.195 29.195l-14.195-9.484c9.553-12.915 20.991-24.352 33.905-33.906zm-42.262 46.363 14.206 9.492c-7.014 11.741-12.404 24.557-15.853 38.141l-16.753-3.333c3.92-15.813 10.18-30.711 18.4-44.3zm-94.748 91.533c-4.705 0-8.532-3.828-8.532-8.532s3.828-8.532 8.532-8.532 8.532 3.828 8.532 8.532-3.827 8.532-8.532 8.532zm71.629-8.532c0-8.151.615-16.161 1.791-23.989l16.764 3.334c-.975 6.748-1.49 13.642-1.49 20.655s.515 13.907 1.49 20.655l-16.764 3.334c-1.176-7.828-1.791-15.838-1.791-23.989zm4.718 38.701 16.753-3.333c3.449 13.584 8.839 26.4 15.853 38.141l-14.206 9.492c-8.219-13.589-14.479-28.487-18.4-44.3zm-2.225 131.712c-1.612 1.612-3.754 2.5-6.033 2.5s-4.421-.888-6.033-2.5-2.499-3.754-2.499-6.033.887-4.421 2.499-6.033c1.612-1.612 3.754-2.499 6.033-2.499s4.421.888 6.033 2.499c3.326 3.326 3.326 8.739 0 12.066zm28.982-74.954 14.195-9.485c8.285 11.07 18.125 20.911 29.195 29.195l-9.485 14.195c-12.913-9.554-24.351-20.991-33.905-33.905zm46.363 42.261 9.492-14.206c11.74 7.014 24.556 12.404 38.14 15.854l-3.332 16.753c-15.813-3.922-30.712-10.181-44.3-18.401zm83.001 103.28c-4.705 0-8.532-3.828-8.532-8.532s3.828-8.532 8.532-8.532 8.532 3.828 8.532 8.532-3.827 8.532-8.532 8.532zm0-80.161c-8.151 0-16.161-.615-23.99-1.791l3.334-16.764c6.748.975 13.642 1.49 20.655 1.49s13.908-.515 20.655-1.49l3.334 16.764c-7.827 1.176-15.837 1.791-23.988 1.791zm38.701-4.719-3.332-16.753c13.584-3.449 26.4-8.839 38.14-15.854l9.492 14.206c-13.588 8.221-28.487 14.48-44.3 18.401zm131.712 2.227c1.612 1.611 2.499 3.754 2.499 6.033s-.887 4.421-2.499 6.034c-1.612 1.611-3.754 2.499-6.033 2.499s-4.421-.888-6.033-2.499c-3.327-3.327-3.327-8.74 0-12.066 1.612-1.612 3.754-2.5 6.033-2.5 2.279-.001 4.421.886 6.033 2.499zm-74.955-28.983-9.485-14.195c11.07-8.285 20.911-18.125 29.195-29.195l14.195 9.484c-9.553 12.915-20.991 24.352-33.905 33.906zm42.262-46.363-14.206-9.492c7.014-11.741 12.404-24.557 15.853-38.141l16.753 3.333c-3.92 15.813-10.18 30.711-18.4 44.3zm4.565-62.346c.975-6.748 1.49-13.642 1.49-20.655s-.515-13.907-1.49-20.655l16.754-3.333c1.183 7.874 1.8 15.886 1.8 23.987 0 8.151-.615 16.161-1.79 23.989z"/><path d="m354.003 270.354c-4.445-2.461-10.408-5.094-16.174-7.639-4.173-1.842-10.173-4.491-14.412-6.715 4.238-2.225 10.238-4.873 14.411-6.715 5.767-2.545 11.729-5.178 16.175-7.64 3.6-1.994 12.031-6.663 9.924-14.547-2.6-9.722-15.251-8.353-34.403-6.278-4.507.488-10.452 1.132-14.95 1.35 2.518-3.938 6.199-8.981 8.78-12.516 3.763-5.155 7.654-10.485 10.309-14.918 2.136-3.566 7.137-11.918 1.325-17.729-5.812-5.812-14.163-.81-17.729 1.326-4.433 2.655-9.763 6.547-14.917 10.311-3.534 2.58-8.576 6.262-12.513 8.78.218-4.498.862-10.441 1.35-14.947 2.074-19.152 3.445-31.804-6.278-34.403-7.883-2.107-12.553 6.324-14.546 9.924-2.462 4.446-5.094 10.408-7.64 16.175-1.842 4.173-4.491 10.173-6.714 14.411-2.224-4.238-4.874-10.239-6.715-14.412-2.545-5.766-5.178-11.729-7.64-16.174-1.993-3.6-6.659-12.032-14.547-9.924-9.723 2.599-8.353 15.252-6.278 34.404.488 4.506 1.132 10.451 1.35 14.949-3.938-2.518-8.981-6.2-12.515-8.78-5.155-3.763-10.485-7.654-14.918-10.31-3.566-2.135-11.918-7.137-17.729-1.325-5.812 5.812-.81 14.164 1.326 17.73 2.655 4.433 6.547 9.763 10.311 14.917 2.58 3.534 6.261 8.575 8.779 12.513-4.498-.218-10.441-.862-14.948-1.35-19.15-2.075-31.805-3.445-34.403 6.277-2.107 7.884 6.324 12.553 9.924 14.546 4.445 2.461 10.408 5.094 16.174 7.639 4.173 1.842 10.173 4.491 14.412 6.715-4.238 2.225-10.238 4.873-14.411 6.715-5.767 2.545-11.729 5.178-16.175 7.64-3.6 1.994-12.031 6.663-9.924 14.547 2.599 9.722 15.25 8.352 34.403 6.278 4.507-.488 10.452-1.132 14.95-1.35-2.518 3.938-6.199 8.981-8.78 12.516-3.763 5.155-7.654 10.485-10.309 14.918-2.136 3.566-7.137 11.918-1.325 17.729 5.812 5.812 14.163.81 17.729-1.326 4.433-2.655 9.763-6.547 14.917-10.311 6.294-4.597 13.429-9.806 17.133-11.331 3.83-1.577 5.656-5.961 4.079-9.791-1.578-3.829-5.961-5.655-9.791-4.079-5.376 2.214-12.609 7.495-20.267 13.087-.063.046-.127.093-.192.14.047-.064.094-.128.14-.192 10.782-14.769 17.29-23.683 13.113-30.901-4.137-7.149-14.394-6.038-33.013-4.021-.107.012-.216.023-.326.035 16.752-7.396 26.852-11.905 26.852-20.303 0-8.396-10.098-12.906-26.847-20.3.107.012.215.023.32.034 18.62 2.017 28.876 3.128 33.013-4.021 4.176-7.218-2.333-16.132-13.115-30.899-.046-.064-.094-.128-.141-.193.064.047.128.094.192.141 14.768 10.781 23.683 17.289 30.901 13.112 7.148-4.136 6.038-14.393 4.021-33.012-.012-.108-.024-.217-.036-.327 7.396 16.752 11.905 26.852 20.303 26.852 8.397 0 12.905-10.097 20.3-26.848-.012.108-.023.215-.035.321-2.017 18.62-3.127 28.876 4.021 33.012 7.217 4.176 16.132-2.332 30.901-13.115.063-.046.127-.093.191-.14-.047.064-.094.128-.14.192-10.782 14.769-17.29 23.683-13.113 30.901 4.137 7.149 14.394 6.038 33.013 4.021.107-.012.216-.023.326-.035-16.752 7.396-26.852 11.905-26.852 20.303 0 8.396 10.098 12.906 26.847 20.3-.107-.012-.215-.023-.32-.034-18.62-2.017-28.877-3.128-33.013 4.021-4.176 7.218 2.333 16.132 13.115 30.899.046.064.094.128.141.193-.064-.047-.128-.094-.192-.141-14.769-10.781-23.682-17.29-30.901-13.112-7.148 4.136-6.038 14.393-4.021 33.012.012.108.024.217.036.327-7.396-16.752-11.905-26.852-20.303-26.852-8.449 0-12.961 10.222-20.437 27.157-2.765 6.263-5.624 12.739-7.934 16.507-2.165 3.531-1.058 8.149 2.474 10.314 3.531 2.165 8.15 1.057 10.314-2.474 2.838-4.628 5.767-11.265 8.868-18.29 1.842-4.172 4.491-10.172 6.714-14.411 2.224 4.238 4.874 10.239 6.715 14.412 2.545 5.766 5.178 11.729 7.64 16.174 1.777 3.209 5.68 10.258 12.091 10.257.781 0 1.599-.105 2.456-.333 9.723-2.599 8.353-15.252 6.278-34.404-.488-4.506-1.132-10.451-1.35-14.949 3.938 2.518 8.981 6.2 12.515 8.78 5.155 3.763 10.485 7.654 14.918 10.31 3.566 2.135 11.918 7.137 17.729 1.325 5.812-5.812.81-14.164-1.326-17.73-2.655-4.433-6.547-9.763-10.311-14.917-2.58-3.534-6.261-8.575-8.779-12.513 4.498.218 10.441.862 14.948 1.35 19.15 2.075 31.804 3.445 34.403-6.277 2.109-7.883-6.321-12.551-9.922-14.545z"/></g></g></svg>