<?xml version="1.0"?>
<svg xmlns="http://www.w3.org/2000/svg" xmlns:xlink="http://www.w3.org/1999/xlink" xmlns:svgjs="http://svgjs.com/svgjs" version="1.1" width="512" height="512" x="0" y="0" viewBox="0 0 128 128" style="enable-background:new 0 0 512 512" xml:space="preserve" class=""><g><g xmlns="http://www.w3.org/2000/svg"><path d="m107.5 83.191v-6.783c0-.552-.448-1-1-1h-40v-8.708h21.213c3.86 0 7-3.14 7-7v-6.624c0-2.548-1.373-4.775-3.413-6 2.04-1.225 3.413-3.452 3.413-6v-6.624c0-2.548-1.373-4.775-3.413-6 2.04-1.225 3.413-3.452 3.413-6v-6.624c0-3.86-3.14-7-7-7h-44.426c-3.86 0-7 3.14-7 7v6.624c0 2.548 1.373 4.775 3.413 6-2.04 1.225-3.413 3.452-3.413 6v6.624c0 2.548 1.373 4.775 3.413 6-2.04 1.225-3.413 3.452-3.413 6v6.624c0 3.86 3.14 7 7 7h21.213v8.708h-40c-.552 0-1 .448-1 1v6.783c-10.288.534-18.5 9.047-18.5 19.465 0 10.762 8.755 19.517 19.517 19.517s19.517-8.755 19.517-19.517c0-10.43-8.23-18.95-18.534-19.467v-5.782h39v5.783c-10.296.526-18.517 9.042-18.517 19.466 0 10.762 8.755 19.517 19.517 19.517s19.517-8.755 19.517-19.517c0-10.424-8.221-18.941-18.517-19.466v-5.783h39v5.782c-10.304.517-18.534 9.037-18.534 19.467 0 10.762 8.755 19.517 19.517 19.517s19.517-8.755 19.517-19.517c0-10.418-8.212-18.931-18.5-19.465z" fill="#e6e7e8" data-original="#e6e7e8" style="" class=""/><g><g><g><g><path d="m83.713 61.699h-44.426c-3.314 0-6-2.686-6-6v-6.624c0-3.314 2.686-6 6-6h44.425c3.314 0 6 2.686 6 6v6.624c.001 3.314-2.686 6-5.999 6z" fill="#f3004b" data-original="#fa759e" style="" class=""/><g fill="#ffd7e5"><circle cx="71.585" cy="52.387" r="2.47" fill="#ffffff" data-original="#ffd7e5" style="" class=""/><circle cx="80.412" cy="52.387" r="2.47" fill="#ffffff" data-original="#ffd7e5" style="" class=""/></g></g><g><path d="m83.713 43.075h-44.426c-3.314 0-6-2.686-6-6v-6.624c0-3.314 2.686-6 6-6h44.425c3.314 0 6 2.686 6 6v6.624c.001 3.314-2.686 6-5.999 6z" fill="#f3004b" data-original="#fa759e" style="" class=""/><g fill="#ffd7e5"><circle cx="71.585" cy="33.763" r="2.47" fill="#ffffff" data-original="#ffd7e5" style="" class=""/><circle cx="80.412" cy="33.763" r="2.47" fill="#ffffff" data-original="#ffd7e5" style="" class=""/></g></g><g><path d="m83.713 24.451h-44.426c-3.314 0-6-2.686-6-6v-6.624c0-3.314 2.686-6 6-6h44.425c3.314 0 6 2.686 6 6v6.624c.001 3.314-2.686 6-5.999 6z" fill="#f3004b" data-original="#fa759e" style="" class=""/><path d="m36.287 18.451v-6.624c0-3.314 2.686-6 6-6h-3c-3.314 0-6 2.686-6 6v6.624c0 3.314 2.686 6 6 6h3c-3.313 0-6-2.686-6-6z" fill="#e9e1e1" data-original="#ffffff" style="" class=""/><g fill="#ffd7e5"><circle cx="71.585" cy="15.139" r="2.47" fill="#ffffff" data-original="#ffd7e5" style="" class=""/><circle cx="80.412" cy="15.139" r="2.47" fill="#ffffff" data-original="#ffd7e5" style="" class=""/></g></g></g></g><g><circle cx="61.5" cy="98.656" fill="#ffffff" r="18.517" data-original="#ffd7e5" style="" class=""/><g><path d="m48.304 111.637c3.359 3.414 8.028 5.536 13.196 5.536s9.837-2.122 13.196-5.536v-4.142c0-3.719-3.015-6.733-6.733-6.733h-12.926c-3.719 0-6.733 3.015-6.733 6.733z" fill="#d4fbff" data-original="#d4fbff" style="" class=""/><g fill="#0089ef"><path d="m61.5 101.98c-1.225 0-2.385-.272-3.431-.747l2.005 5.138h2.853l2.004-5.138c-1.047.475-2.206.747-3.431.747z" fill="#0089ef" data-original="#0089ef" style="" class=""/><path d="m61.5 117.173c.702 0 1.392-.046 2.074-.123l-.647-10.679h-2.853l-.647 10.679c.681.076 1.371.123 2.073.123z" fill="#0089ef" data-original="#0089ef" style="" class=""/></g><path d="m69.791 93.725c0 4.559-3.712 8.255-8.291 8.255s-8.291-3.696-8.291-8.255 3.712-8.255 8.291-8.255 8.291 3.696 8.291 8.255z" fill="#e9e1e1" data-original="#ffffff" style="" class=""/></g></g><g><circle cx="20.517" cy="98.656" fill="#ffffff" r="18.517" data-original="#ffd7e5" style="" class=""/><g><path d="m7.321 111.637c3.359 3.414 8.028 5.536 13.196 5.536s9.837-2.122 13.196-5.536v-4.142c0-3.719-3.015-6.733-6.733-6.733h-12.926c-3.719 0-6.733 3.015-6.733 6.733z" fill="#d4fbff" data-original="#d4fbff" style="" class=""/><g fill="#0089ef"><path d="m20.517 101.98c-1.225 0-2.385-.272-3.431-.747l2.005 5.138h2.853l2.004-5.138c-1.047.475-2.206.747-3.431.747z" fill="#0089ef" data-original="#0089ef" style="" class=""/><path d="m20.517 117.173c.702 0 1.392-.046 2.074-.123l-.647-10.679h-2.854l-.647 10.679c.682.076 1.372.123 2.074.123z" fill="#0089ef" data-original="#0089ef" style="" class=""/></g><path d="m28.807 93.725c0 4.559-3.712 8.255-8.291 8.255s-8.291-3.696-8.291-8.255 3.712-8.255 8.291-8.255c4.58 0 8.291 3.696 8.291 8.255z" fill="#e9e1e1" data-original="#ffffff" style="" class=""/></g></g><g><circle cx="102.483" cy="98.656" fill="#ffffff" r="18.517" data-original="#ffd7e5" style="" class=""/><g><path d="m89.287 111.637c3.359 3.414 8.028 5.536 13.196 5.536s9.837-2.122 13.196-5.536v-4.142c0-3.719-3.015-6.733-6.733-6.733h-12.925c-3.719 0-6.733 3.015-6.733 6.733v4.142z" fill="#d4fbff" data-original="#d4fbff" style="" class=""/><g fill="#0089ef"><path d="m102.483 101.98c-1.225 0-2.385-.272-3.431-.747l2.005 5.138h2.853l2.004-5.138c-1.046.475-2.206.747-3.431.747z" fill="#0089ef" data-original="#0089ef" style="" class=""/><path d="m102.483 117.173c.702 0 1.392-.046 2.074-.123l-.647-10.679h-2.853l-.647 10.679c.681.076 1.371.123 2.073.123z" fill="#0089ef" data-original="#0089ef" style="" class=""/></g><path d="m110.774 93.725c0 4.559-3.712 8.255-8.291 8.255s-8.291-3.696-8.291-8.255 3.712-8.255 8.291-8.255 8.291 3.696 8.291 8.255z" fill="#e9e1e1" data-original="#ffffff" style="" class=""/></g></g><g fill="#3a2c60"><path d="m58.375 6.827h10.74c.552 0 1-.448 1-1s-.448-1-1-1h-10.74c-.552 0-1 .448-1 1s.448 1 1 1z" fill="#3a2c60" data-original="#3a2c60" style=""/><path d="m103.5 79.191v-6.783c0-.552-.448-1-1-1h-40v-8.708h21.213c3.86 0 7-3.14 7-7v-6.624c0-2.548-1.373-4.775-3.413-6 2.04-1.225 3.413-3.452 3.413-6v-6.624c0-2.548-1.373-4.775-3.413-6 2.04-1.225 3.413-3.452 3.413-6v-6.624c0-3.86-3.14-7-7-7h-10.713c-.552 0-1 .448-1 1s.448 1 1 1h10.713c2.757 0 5 2.243 5 5v6.624c0 2.757-2.243 5-5 5h-44.426c-2.757 0-5-2.243-5-5v-6.624c0-2.757 2.243-5 5-5h14.963c.552 0 1-.448 1-1s-.448-1-1-1h-14.963c-3.86 0-7 3.14-7 7v6.624c0 2.548 1.373 4.775 3.413 6-2.04 1.225-3.413 3.452-3.413 6v6.624c0 2.548 1.373 4.775 3.413 6-2.04 1.225-3.413 3.452-3.413 6v6.624c0 3.86 3.14 7 7 7h21.213v8.708h-40c-.552 0-1 .448-1 1v6.783c-10.288.534-18.5 9.046-18.5 19.465 0 10.762 8.755 19.517 19.517 19.517s19.517-8.755 19.517-19.517c0-10.43-8.23-18.95-18.534-19.467v-5.782h39v5.783c-10.296.526-18.517 9.042-18.517 19.466 0 10.762 8.755 19.517 19.517 19.517s19.517-8.755 19.517-19.517c0-10.424-8.221-18.94-18.517-19.466v-5.783h39v5.782c-10.304.517-18.534 9.037-18.534 19.467 0 10.762 8.755 19.517 19.517 19.517s19.517-8.756 19.517-19.517c0-10.419-8.212-18.931-18.5-19.465zm-69.213-42.116v-6.624c0-2.757 2.243-5 5-5h44.426c2.757 0 5 2.243 5 5v6.624c0 2.757-2.243 5-5 5h-44.426c-2.757 0-5-2.243-5-5zm0 18.624v-6.624c0-2.757 2.243-5 5-5h44.426c2.757 0 5 2.243 5 5v6.624c0 2.757-2.243 5-5 5h-44.426c-2.757 0-5-2.243-5-5zm-25.966 55.505v-3.71c0-3.162 2.572-5.733 5.733-5.733h1.873c1.356.771 2.92 1.219 4.59 1.219s3.234-.447 4.59-1.219h1.872c3.162 0 5.733 2.572 5.733 5.733v3.71c-3.157 3.069-7.456 4.969-12.196 4.969-4.739 0-9.038-1.9-12.195-4.969zm12.196-10.224c-4.021 0-7.291-3.255-7.291-7.255s3.271-7.255 7.291-7.255 7.291 3.254 7.291 7.255-3.271 7.255-7.291 7.255zm17.517-2.324c0 3.817-1.241 7.341-3.321 10.222v-1.383c0-4.082-3.181-7.427-7.194-7.706 1.421-1.626 2.288-3.744 2.288-6.064 0-5.103-4.167-9.255-9.291-9.255s-9.291 4.152-9.291 9.255c0 2.32.868 4.438 2.289 6.064-4.012.279-7.194 3.624-7.194 7.706v1.383c-2.079-2.881-3.32-6.406-3.32-10.222 0-9.659 7.858-17.517 17.517-17.517s17.517 7.858 17.517 17.517zm11.27 12.549v-3.71c0-3.162 2.572-5.733 5.733-5.733h1.872c1.356.771 2.92 1.219 4.59 1.219s3.234-.447 4.59-1.219h1.872c3.162 0 5.733 2.572 5.733 5.733v3.71c-3.157 3.069-7.456 4.968-12.196 4.968s-9.037-1.9-12.194-4.968zm12.196-10.225c-4.02 0-7.291-3.255-7.291-7.255s3.271-7.255 7.291-7.255 7.291 3.254 7.291 7.255-3.271 7.255-7.291 7.255zm17.517-2.324c0 3.817-1.241 7.342-3.321 10.222v-1.384c0-4.082-3.181-7.427-7.194-7.706 1.421-1.626 2.288-3.744 2.288-6.064 0-5.103-4.167-9.255-9.291-9.255s-9.291 4.152-9.291 9.255c0 2.32.868 4.438 2.288 6.064-4.012.279-7.194 3.624-7.194 7.706v1.384c-2.08-2.881-3.321-6.406-3.321-10.222 0-9.659 7.858-17.517 17.517-17.517s17.519 7.858 17.519 17.517zm23.466-17.517c9.659 0 17.517 7.858 17.517 17.517 0 3.817-1.241 7.341-3.321 10.222v-1.383c0-4.082-3.181-7.427-7.194-7.706 1.421-1.626 2.288-3.744 2.288-6.064 0-5.103-4.167-9.255-9.291-9.255s-9.291 4.152-9.291 9.255c0 2.32.868 4.438 2.289 6.064-4.012.279-7.194 3.624-7.194 7.706v1.383c-2.08-2.881-3.321-6.405-3.321-10.222.001-9.659 7.859-17.517 17.518-17.517zm-7.291 12.586c0-4 3.271-7.255 7.291-7.255s7.291 3.254 7.291 7.255-3.271 7.255-7.291 7.255-7.291-3.255-7.291-7.255zm-4.905 17.479v-3.71c0-3.162 2.572-5.733 5.733-5.733h1.873c1.356.771 2.92 1.219 4.59 1.219s3.234-.447 4.59-1.219h1.872c3.162 0 5.733 2.572 5.733 5.733v3.71c-3.157 3.069-7.456 4.969-12.196 4.969-4.739 0-9.038-1.9-12.195-4.969z" fill="#3a2c60" data-original="#3a2c60" style=""/></g></g></g></g></svg>
