<svg height="512" viewBox="0 0 56 58" width="512" xmlns="http://www.w3.org/2000/svg"><g id="Page-1" fill="none" fill-rule="evenodd"><g id="065---Increased-Deaths" fill-rule="nonzero"><path id="Shape" d="m23 22v-12.5c0-.27614237-.2238576-.5-.5-.5h-3.5c-.4364692-.01279497-.8177498-.2986477-.9523946-.71402687-.1346448-.41537918.0064325-.87055375.3523946-1.13697313l9-6.943c.3533598-.27317441.8466402-.27317441 1.2 0l9 6.943c.3459621.26641938.4870394.72159395.3523946 1.13697313-.1346448.41537917-.5159254.7012319-.9523946.71402687h-3.5c-.2761424 0-.5.22385763-.5.5v12.5z" fill="#ff5364"/><path id="Shape" d="m4 38v-22.5c0-.2761424-.22385763-.5-.5-.5h-2.394c-.44747042.023514-.85995593-.2414083-1.02469028-.6581159-.16473435-.4167077-.04490016-.8920685.29769028-1.1808841l5.894-4.9c.42104749-.35119278 1.03295251-.35119278 1.454 0l5.894 4.9c.3425904.2888156.4624246.7641764.2976903 1.1808841-.1647344.4167076-.5772199.6816299-1.0246903.6581159h-2.394c-.2761424 0-.5.2238576-.5.5v22.5c0 .5522847-.44771525 1-1 1h-4c-.55228475 0-1-.4477153-1-1z" fill="#ff5364"/><path id="Shape" d="m46 38v-22.5c0-.2761424-.2238576-.5-.5-.5h-2.394c-.4474704.023514-.8599559-.2414083-1.0246903-.6581159-.1647343-.4167077-.0449001-.8920685.2976903-1.1808841l5.894-4.9c.4210475-.35119278 1.0329525-.35119278 1.454 0l5.894 4.9c.3425904.2888156.4624246.7641764.2976903 1.1808841-.1647344.4167076-.5772199.6816299-1.0246903.6581159h-2.394c-.2761424 0-.5.2238576-.5.5v22.5c0 .5522847-.4477153 1-1 1h-4c-.5522847 0-1-.4477153-1-1z" fill="#ff5364"/><path id="Shape" d="m28 20c8.2842712 0 15 6.7157288 15 15v21h-30v-21c0-8.2842712 6.7157288-15 15-15z" fill="#bcc2c6"/><path id="Shape" d="m9 54h38c1.1045695 0 2 .8954305 2 2v1c0 .5522847-.4477153 1-1 1h-40c-.55228475 0-1-.4477153-1-1v-1c0-1.1045695.8954305-2 2-2z" fill="#4fb96f"/><g fill="#7f8b8c"><path id="Shape" d="m36 30h-2c-1.1045695 0-2 .8954305-2 2v10c0 .5522847.4477153 1 1 1s1-.4477153 1-1v-4h2c2.209139 0 4-1.790861 4-4s-1.790861-4-4-4zm0 6h-2v-4h2c1.1045695 0 2 .8954305 2 2s-.8954305 2-2 2z"/><path id="Shape" d="m28 43c.5522847 0 1-.4477153 1-1v-11c0-.5522847-.4477153-1-1-1s-1 .4477153-1 1v11c0 .5522847.4477153 1 1 1z"/><path id="Shape" d="m19 42v-4h2c.5522847 0 1 .4477153 1 1v3c0 .5522847.4477153 1 1 1s1-.4477153 1-1v-3c-.0034183-.6516359-.2209112-1.2840869-.619-1.8 1.3918608-1.0225903 1.967049-2.8250684 1.4247795-4.4648584-.5422694-1.63979-2.0786752-2.7439757-3.8057795-2.7351416h-2c-1.1045695 0-2 .8954305-2 2v10c0 .5522847.4477153 1 1 1s1-.4477153 1-1zm0-10h2c1.1045695 0 2 .8954305 2 2s-.8954305 2-2 2h-2z"/><path id="Shape" d="m37 46h-18c-.5522847 0-1 .4477153-1 1s.4477153 1 1 1h18c.5522847 0 1-.4477153 1-1s-.4477153-1-1-1z"/></g></g></g></svg>