<svg height="512pt" viewBox="0 0 512 512" width="512pt" xmlns="http://www.w3.org/2000/svg"><g fill-rule="evenodd"><path d="m255.984375 9.992188c135.867187 0 246.023437 110.125 246.023437 245.992187s-110.15625 246.023437-246.023437 246.023437c-135.863281 0-245.992187-110.15625-245.992187-246.023437 0-135.863281 110.128906-245.992187 245.992187-245.992187zm0 0" fill="#bdd9ff"/><path d="m255.984375 193.566406h-158.371094c-17.945312 0-32.628906 14.683594-32.628906 32.65625v59.78125c0 17.945313 14.683594 32.65625 32.628906 32.65625h318.730469c17.941406 0 32.625-14.714844 32.625-32.65625v-59.78125c0-17.972656-14.683594-32.65625-32.625-32.65625zm0 0" fill="#cbe558"/><path d="m282.347656 109.660156c0-14.570312-11.792968-26.363281-26.363281-26.363281-14.542969 0-26.363281 11.792969-26.363281 26.363281 0 .253906 0 .539063.03125.820313.421875 14.175781 12.046875 25.542969 26.332031 25.542969 14.289063 0 25.910156-11.367188 26.363281-25.542969 0-.28125 0-.566407 0-.820313zm0 0" fill="#f46370"/><path d="m170.09375 386.238281c0-14.542969-11.789062-26.363281-26.359375-26.363281-2.582031 0-5.074219.371094-7.429687 1.078125-8.132813 2.382813-14.652344 8.589844-17.433594 16.554687-.960938 2.722657-1.5 5.667969-1.5 8.730469 0 14.570313 11.820312 26.363281 26.363281 26.363281 3.34375 0 6.546875-.59375 9.46875-1.730468 7.851563-3.03125 13.890625-9.664063 16.042969-17.914063.566406-2.125.847656-4.394531.847656-6.71875zm0 0" fill="#e2f1a1"/><path d="m368.238281 359.878906c-14.570312 0-26.359375 11.820313-26.359375 26.359375 0 2.324219.308594 4.59375.878906 6.71875 2.152344 8.25 8.191407 14.882813 16.015626 17.914063 2.945312 1.136718 6.121093 1.730468 9.464843 1.730468 14.570313 0 26.363281-11.792968 26.363281-26.363281 0-3.058593-.507812-6.007812-1.472656-8.730469-2.804687-7.964843-9.324218-14.171874-17.460937-16.554687-2.355469-.707031-4.847657-1.074219-7.429688-1.074219zm0 0" fill="#579fff"/></g><path d="m429.976562 92.070312c-2.554687 0-5.113281-.976562-7.066406-2.925781l-.140625-.140625c-3.902343-3.902344-3.902343-10.230468 0-14.132812 3.902344-3.902344 10.230469-3.902344 14.132813 0l.140625.140625c3.902343 3.902343 3.902343 10.230469 0 14.132812-1.949219 1.949219-4.507813 2.925781-7.066407 2.925781zm0 0"/><path d="m187.671875 221.316406c-4.792969 0-7.9375 2.441406-9.441406 7.316406l-10.320313 33.335938-10.0625-31.722656c-2.011718-6.035156-5.46875-9.042969-10.316406-9.042969-4.535156 0-7.765625 3.007813-9.695312 9.042969l-10.175782 31.722656-10.320312-33.335938c-1.613282-4.878906-4.789063-7.316406-9.578125-7.316406-2.75 0-5.046875.964844-6.832031 2.835938-1.816407 1.898437-2.722657 4.167968-2.722657 6.859375 0 1.417969.253907 2.777343.765625 4.023437l17.234375 46.179688c2.496094 6.546875 6.40625 9.808594 11.679688 9.808594 4.960937 0 8.445312-2.976563 10.460937-8.929688l9.4375-27.921875 9.441406 27.921875c2.070313 5.953125 5.554688 8.929688 10.429688 8.929688 5.359375 0 9.269531-3.261719 11.707031-9.808594l17.234375-46.179688c.484375-1.5.738282-2.859375.738282-4.023437 0-2.777344-.90625-5.074219-2.75-6.917969-1.84375-1.839844-4.164063-2.777344-6.914063-2.777344zm0 0"/><path d="m406.054688 221.316406c-4.792969 0-7.9375 2.441406-9.441407 7.316406l-10.316406 33.335938-10.0625-31.722656c-2.011719-6.035156-5.445313-9.042969-10.320313-9.042969-4.53125 0-7.765624 3.007813-9.691406 9.042969l-10.175781 31.722656-10.320313-33.335938c-1.585937-4.878906-4.789062-7.316406-9.550781-7.316406-2.78125 0-5.046875.964844-6.863281 2.835938-1.8125 1.898437-2.71875 4.167968-2.71875 6.859375 0 1.417969.253906 2.777343.765625 4.023437l17.234375 46.179688c2.523438 6.546875 6.40625 9.808594 11.707031 9.808594 4.929688 0 8.417969-2.976563 10.429688-8.929688l9.441406-27.921875 9.4375 27.921875c2.097656 5.953125 5.585937 8.929688 10.433594 8.929688 5.386719 0 9.269531-3.261719 11.707031-9.808594l17.234375-46.179688c.507813-1.5.765625-2.859375.765625-4.023437 0-2.777344-.9375-5.074219-2.777344-6.917969-1.84375-1.839844-4.140625-2.777344-6.917968-2.777344zm0 0"/><path d="m296.863281 221.316406c-4.792969 0-7.9375 2.441406-9.441406 7.316406l-10.316406 33.335938-10.0625-31.722656c-2.015625-6.035156-5.445313-9.042969-10.320313-9.042969-4.535156 0-7.765625 3.007813-9.695312 9.042969l-10.175782 31.722656-10.316406-33.335938c-1.589844-4.878906-4.792968-7.316406-9.554687-7.316406-2.777344 0-5.074219.964844-6.859375 2.835938-1.8125 1.898437-2.722656 4.167968-2.722656 6.859375 0 1.417969.257812 2.777343.765624 4.023437l17.234376 46.179688c2.523437 6.546875 6.40625 9.808594 11.707031 9.808594 4.933593 0 8.421875-2.976563 10.433593-8.929688l9.4375-27.921875 9.441407 27.921875c2.097656 5.953125 5.554687 8.929688 10.429687 8.929688 5.359375 0 9.269532-3.261719 11.707032-9.808594l17.234374-46.179688c.511719-1.5.738282-2.859375.738282-4.023437 0-2.777344-.90625-5.074219-2.75-6.917969-1.84375-1.839844-4.167969-2.777344-6.914063-2.777344zm0 0"/><path d="m463.382812 105.890625c-3.242187-4.46875-9.488281-5.460937-13.957031-2.222656s-5.464843 9.484375-2.226562 13.953125c13.8125 19.050781 24.550781 39.742187 32.050781 61.535156-23.925781-26.019531-59.734375-47.449219-103.277344-61.476562-8.1875-23.136719-18.410156-43.902344-30.269531-61.167969-7.09375-10.328125-14.628906-19.289063-22.53125-26.851563 24.484375 7.246094 47.722656 18.496094 68.945313 33.503906 4.507812 3.1875 10.742187 2.117188 13.929687-2.390624 3.1875-4.503907 2.113281-10.742188-2.390625-13.925782-43.34375-30.648437-94.40625-46.847656-147.671875-46.847656-68.378906 0-132.664063 26.625-181.011719 74.972656s-74.972656 112.632813-74.972656 181.011719c0 68.382813 26.625 132.671875 74.972656 181.027344s112.632813 74.988281 181.011719 74.988281 132.671875-26.632812 181.027344-74.988281 74.988281-112.644531 74.988281-181.027344c0-54.320313-16.8125-106.21875-48.617188-150.09375zm-4.417968 180.113281v-20.027344h32.378906c-5.019531 38.882813-39.117188 74.933594-93.769531 98.824219-2.773438-3.789062-6.261719-7.019531-10.261719-9.496093 2.003906-8.695313 3.75-17.609376 5.214844-26.652344h23.816406c23.5 0 42.621094-19.132813 42.621094-42.648438zm-25.972656-119.804687c34.191406 22.480469 54.570312 50.496093 58.367187 79.792969h-32.394531v-19.769532c0-23.519531-19.121094-42.648437-42.621094-42.648437h-23.753906c-2.355469-14.53125-5.433594-28.640625-9.167969-42.152344 18.199219 6.820313 34.898437 15.128906 49.570313 24.777344zm-60.664063 17.375h-106.351563v-38.96875c11.535157-3.300781 20.734376-12.164063 24.503907-23.488281 24.441406 2.089843 47.972656 6.394531 69.851562 12.691406 4.988281 15.644531 9.03125 32.351562 11.996094 49.765625zm-106.351563-162.789063c28.375 4.503906 49.800782 27.457032 63.257813 47.042969 8.570313 12.480469 16.226563 27.011719 22.796875 43.078125-19.132812-4.683594-39.46875-8.003906-60.710938-9.773438-3.066406-12.714843-12.835937-22.835937-25.34375-26.417968zm6.378907 88.875c0 9.027344-7.34375 16.371094-16.371094 16.371094s-16.371094-7.34375-16.371094-16.371094 7.34375-16.371094 16.371094-16.371094 16.371094 7.34375 16.371094 16.371094zm-26.363281 34.945313v38.96875h-106.324219c2.960937-17.410157 7-34.117188 11.988281-49.761719 21.871094-6.296875 45.398438-10.601562 69.835938-12.695312 3.773437 11.328124 12.972656 20.1875 24.5 23.488281zm0-123.820313v53.929688c-12.507813 3.582031-22.273438 13.703125-25.34375 26.417968-21.234376 1.773438-41.566407 5.09375-60.695313 9.777344 6.570313-16.066406 14.226563-30.597656 22.800781-43.082031 13.457032-19.585937 34.875-42.535156 63.238282-47.042969zm-57.300782 8.992188c-7.855468 7.535156-15.351562 16.460937-22.410156 26.738281-11.863281 17.265625-22.085938 38.035156-30.269531 61.167969-43.453125 14.003906-79.199219 35.371094-103.125 61.324218 24.746093-71.507812 82.953125-127.519531 155.804687-149.230468zm-91.078125 298.875h21.832031c1.457032 8.96875 3.203126 17.882812 5.222657 26.648437-4.003907 2.476563-7.488281 5.707031-10.265625 9.488281-54.636719-23.878906-88.726563-59.925781-93.746094-98.808593h34.335938v20.027343c0 23.511719 19.121093 42.644532 42.621093 42.644532zm-42.621093-102.429688v19.769532h-34.347657c3.792969-29.292969 24.171875-57.3125 58.363281-79.792969 14.667969-9.644531 31.363282-17.953125 49.5625-24.773438-3.730468 13.511719-6.804687 27.621094-9.160156 42.148438h-21.796875c-23.5 0-42.621093 19.128906-42.621093 42.648437zm-22.054688 106.894532c18.199219 19.734374 43.460938 37.015624 74.546875 50.460937-.0625.878906-.105469 1.765625-.105469 2.660156 0 20.046875 16.308594 36.355469 36.355469 36.355469 1.261719 0 2.511719-.066406 3.742187-.191406 11.707032 24.808594 25.738282 44.984375 41.347657 59.859375-72.867188-21.671875-131.101563-77.65625-155.886719-149.144531zm94.425781 53.121093c0-9.027343 7.34375-16.371093 16.371094-16.371093s16.367187 7.347656 16.367187 16.371093c0 9.027344-7.339843 16.371094-16.367187 16.371094s-16.371094-7.34375-16.371094-16.371094zm118.628907 104.972657c-30.367188-4.898438-58.847657-32-79.957032-76.292969 3.679688-2.867188 6.796875-6.429688 9.152344-10.484375 22.835938 4.605468 46.578125 7.214844 70.804688 7.777344zm0-98.988282c-22.570313-.550781-44.671876-2.960937-65.933594-7.191406-.640625-19.421875-16.574219-35.035156-36.121094-35.140625-1.59375-7-3.015625-14.09375-4.234375-21.238281h106.289063zm-148.378907-83.554687c-12.480469 0-22.636719-10.167969-22.636719-22.664063v-59.78125c0-12.496094 10.15625-22.664062 22.636719-22.664062h286.351563.023437.011719 32.34375c12.480469 0 22.636719 10.167968 22.636719 22.664062v59.78125c0 12.496094-10.15625 22.664063-22.636719 22.664063zm270.625 61.199219c1.691407 0 3.324219.261718 4.859375.738281.003906 0 .003906 0 .007813.003906 6.65625 2.074219 11.503906 8.296875 11.503906 15.628906 0 9.027344-7.34375 16.371094-16.371094 16.371094-9.027343 0-16.371093-7.34375-16.371093-16.371094 0-9.023437 7.34375-16.371093 16.371093-16.371093zm-36.324219 15.167968c-21.257812 4.230469-43.359374 6.636719-65.9375 7.1875v-63.570312h106.296876c-1.226563 7.195312-2.644532 14.285156-4.230469 21.238281-19.550781.101563-35.492188 15.71875-36.128907 35.144531zm-65.9375 106.175782v-79c24.238282-.5625 47.976563-3.167969 70.8125-7.769532 2.355469 4.054688 5.46875 7.613282 9.152344 10.480469-21.089844 44.292969-49.574218 71.394531-79.964844 76.289063zm57.199219-8.953126c15.605469-14.878906 29.632813-35.046874 41.320313-59.855468 1.230468.125 2.480468.191406 3.742187.191406 20.046875 0 36.355469-16.308594 36.355469-36.355469 0-.890625-.042969-1.773437-.109375-2.648437 31.101563-13.453125 56.375-30.742188 74.578125-50.484375-24.78125 71.488281-83.015625 127.472656-155.886719 149.152343zm0 0"/></svg>