<?xml version="1.0" encoding="iso-8859-1"?>
<!-- Generator: Adobe Illustrator 19.0.0, SVG Export Plug-In . SVG Version: 6.00 Build 0)  -->
<svg version="1.1" id="Capa_1" xmlns="http://www.w3.org/2000/svg" xmlns:xlink="http://www.w3.org/1999/xlink" x="0px" y="0px"
	 viewBox="0 0 512.001 512.001" style="enable-background:new 0 0 512.001 512.001;" xml:space="preserve">
<path style="fill:#152C49;" d="M509.926,483.702c-1.951,5.936-5.286,11.506-10.006,16.226C491.876,507.972,481.314,512,470.762,512
	c-10.562,0-21.113-4.028-29.169-12.072L328.108,386.431l58.327-58.327L499.92,441.601
	C511.311,452.991,514.646,469.385,509.926,483.702z"/>
<path style="fill:#1F3B63;" d="M509.926,483.702c-4.195,1.384-8.569,2.077-12.943,2.077c-10.562,0-21.113-4.028-29.169-12.072
	L354.329,360.21l32.105-32.105L499.92,441.601C511.311,452.991,514.646,469.385,509.926,483.702z"/>
<circle style="fill:#E1E8EF;" cx="210.945" cy="210.946" r="210.945"/>
<circle style="fill:#25C2CE;" cx="210.945" cy="210.946" r="163.107"/>
<path style="fill:#19A2A5;" d="M139.666,326.287c-63.698-63.698-63.698-166.972,0-230.67c26.233-26.233,59.179-41.652,93.309-46.277
	c-48.741-6.606-99.896,8.812-137.361,46.277c-63.698,63.698-63.698,166.972,0,230.67c37.465,37.465,88.62,52.883,137.361,46.277
	C198.847,367.938,165.9,352.52,139.666,326.287z"/>
<path style="fill:#D1D7DB;" d="M210.95,381.846c-43.783,0-87.567-16.665-120.898-49.997c-66.663-66.663-66.663-175.132,0-241.795
	c66.662-66.663,175.132-66.664,241.795,0c66.663,66.663,66.663,175.132,0,241.795C298.516,365.18,254.732,381.846,210.95,381.846z
	 M210.95,55.782c-39.755,0-79.508,15.133-109.773,45.396c-60.528,60.529-60.528,159.016,0,219.546
	c60.528,60.527,159.015,60.528,219.546,0c60.528-60.529,60.528-159.016,0-219.546C290.457,70.915,250.704,55.782,210.95,55.782z"/>
<circle style="fill:#F4E662;" cx="222.587" cy="306.412" r="29.525"/>
<path style="fill:#1F3B63;" d="M248.788,131.775c-3.417,0-6.546-2.317-7.524-5.589c-0.965-3.229,0.254-6.812,3.031-8.734
	c5.905-4.085,14.016,1.58,12.064,8.549C255.417,129.36,252.292,131.775,248.788,131.775z"/>
<path style="fill:#D8C74C;" d="M250.183,246.445c-6.977,0-10.499-8.908-5.326-13.658c5.197-4.772,13.83-0.477,13.155,6.562
	C257.629,243.322,254.17,246.445,250.183,246.445z"/>
<path style="fill:#ED3B72;" d="M118.73,297.494c-7.015,0-10.465-8.895-5.34-13.648c2.536-2.352,6.418-2.731,9.381-0.969
	c2.739,1.629,4.249,4.901,3.715,8.044C125.855,294.649,122.526,297.494,118.73,297.494z"/>
<path style="fill:#1F3B63;" d="M222.598,314.276c-3.222,0-6.177-2.038-7.339-5.037c-1.236-3.186-0.211-6.886,2.464-9.008
	c5.612-4.451,13.965,0.703,12.584,7.708C229.591,311.569,226.295,314.276,222.598,314.276z"/>
<g>
	<path style="fill:#CE2562;" d="M284.072,182.461c-3.372,0-6.491-2.186-7.523-5.581l-5.898-19.402
		c-1.264-4.157,1.082-8.55,5.239-9.814c4.156-1.263,8.55,1.081,9.814,5.239l5.898,19.402c1.264,4.157-1.082,8.55-5.239,9.814
		C285.6,182.351,284.83,182.461,284.072,182.461z"/>
	<path style="fill:#CE2562;" d="M303.999,248.024c-3.372,0-6.491-2.186-7.523-5.581l-5.897-19.402
		c-1.264-4.157,1.082-8.55,5.239-9.814c4.157-1.263,8.55,1.081,9.814,5.239l5.897,19.402c1.264,4.157-1.082,8.55-5.239,9.814
		C305.527,247.914,304.757,248.024,303.999,248.024z"/>
	<path style="fill:#CE2562;" d="M314.168,198.526c-3.372,0-6.491-2.186-7.523-5.581c-1.264-4.157,1.082-8.55,5.239-9.814
		l19.402-5.897c4.156-1.266,8.55,1.081,9.814,5.239c1.264,4.157-1.082,8.55-5.239,9.814l-19.402,5.897
		C315.696,198.416,314.926,198.526,314.168,198.526z"/>
	<path style="fill:#CE2562;" d="M248.605,218.453c-3.372,0-6.491-2.186-7.523-5.581c-1.264-4.157,1.082-8.55,5.239-9.814
		l19.402-5.897c4.155-1.264,8.55,1.081,9.814,5.239c1.264,4.157-1.082,8.55-5.239,9.814l-19.402,5.897
		C250.133,218.343,249.362,218.453,248.605,218.453z"/>
</g>
<g>
	<path style="fill:#D8C74C;" d="M204.743,156.244c-0.184,0-0.367-0.006-0.553-0.02l-14.794-1.027
		c-4.334-0.301-7.604-4.058-7.303-8.392c0.3-4.335,4.057-7.602,8.392-7.303l14.794,1.027c4.334,0.301,7.604,4.058,7.303,8.392
		C212.294,153.07,208.839,156.244,204.743,156.244z"/>
	<path style="fill:#D8C74C;" d="M185.352,191.891c-3.953,0-7.359-2.971-7.808-6.993c-0.482-4.318,2.626-8.209,6.943-8.692
		l12.381-1.384c4.319-0.488,8.209,2.625,8.692,6.943c0.482,4.318-2.626,8.209-6.943,8.692l-12.381,1.384
		C185.939,191.876,185.644,191.891,185.352,191.891z"/>
	<path style="fill:#D8C74C;" d="M189.93,233.006c-3.868,0-7.239-2.854-7.782-6.793c-0.594-4.304,2.414-8.273,6.718-8.867
		l14.096-1.944c4.303-0.594,8.273,2.414,8.867,6.718c0.594,4.304-2.414,8.273-6.718,8.867l-14.096,1.944
		C190.651,232.982,190.288,233.006,189.93,233.006z"/>
	<path style="fill:#D8C74C;" d="M142.55,143.727c-0.608,0-1.226-0.071-1.844-0.219l-11.929-2.864
		c-4.224-1.014-6.826-5.261-5.812-9.486c1.014-4.224,5.261-6.826,9.486-5.812l11.929,2.864c4.224,1.014,6.826,5.261,5.812,9.486
		C149.327,141.302,146.104,143.727,142.55,143.727z"/>
	<path style="fill:#D8C74C;" d="M137.045,180.119c-0.242,0-0.487-0.012-0.734-0.034l-16.21-1.5
		c-4.327-0.401-7.509-4.232-7.108-8.558c0.401-4.325,4.234-7.503,8.558-7.108l16.21,1.5c4.327,0.401,7.509,4.232,7.108,8.558
		C144.492,177.056,141.062,180.119,137.045,180.119z"/>
	<path style="fill:#D8C74C;" d="M118.02,217.077c-3.851,0-7.216-2.83-7.777-6.754c-0.615-4.301,2.373-8.286,6.673-8.901
		l19.498-2.789c4.303-0.618,8.286,2.372,8.901,6.673s-2.372,8.286-6.673,8.901l-19.498,2.789
		C118.767,217.052,118.39,217.077,118.02,217.077z"/>
	<path style="fill:#D8C74C;" d="M131.32,249.943c-2.92,0-5.725-1.633-7.084-4.437c-1.895-3.91-0.262-8.615,3.647-10.511
		l11.229-5.444c3.911-1.896,8.615-0.263,10.511,3.647c1.895,3.91,0.262,8.615-3.647,10.511l-11.229,5.444
		C133.642,249.689,132.472,249.943,131.32,249.943z"/>
</g>
<path style="fill:#F4E662;" d="M174.973,253.231c-0.152,0.058-0.304,0.115-0.456,0.172c-13.529,5.112-28.593-2.71-31.972-16.772
	c-7.957-33.115-7.957-67.657,0-100.773c3.379-14.063,18.443-21.884,31.972-16.772c0.152,0.058,0.304,0.115,0.456,0.172
	c11.332,4.282,17.791,16.311,14.968,28.091c-6.126,25.564-6.126,52.224,0,77.788C192.763,236.919,186.304,248.949,174.973,253.231z"
	/>
<path style="fill:#D8C74C;" d="M164.879,151.347c-3.358,0-6.417-2.207-7.464-5.396c-1.048-3.194,0.088-6.867,2.841-8.829
	c5.811-4.142,14.035,1.242,12.244,8.277C171.623,148.854,168.454,151.347,164.879,151.347z"/>
<circle style="fill:#ED3B72;" cx="291.088" cy="197.678" r="24.124"/>
<g>
</g>
<g>
</g>
<g>
</g>
<g>
</g>
<g>
</g>
<g>
</g>
<g>
</g>
<g>
</g>
<g>
</g>
<g>
</g>
<g>
</g>
<g>
</g>
<g>
</g>
<g>
</g>
<g>
</g>
</svg>
