<svg id="Capa_1" enable-background="new 0 0 497 497" height="512" viewBox="0 0 497 497" width="512" xmlns="http://www.w3.org/2000/svg"><g><path d="m407 105-158.5 330h188.5v-322.5c0-4.142-3.358-7.5-7.5-7.5z" fill="#9a96b0"/><path d="m339.83 37.83c-24.222-24.222-57.074-37.83-91.33-37.83s-67.108 13.608-91.33 37.83l-67.17 67.17h-22.5c-4.142 0-7.5 3.358-7.5 7.5v322.5h347v-330z" fill="#b5b6cb"/><path d="m489.5 435h-22.5l-30 31 30 31h22.5c4.142 0 7.5-3.358 7.5-7.5v-47c0-4.142-3.358-7.5-7.5-7.5z" fill="#817d93"/><path d="m459.5 405h-22.5l-77 62h107v-54.5c0-4.142-3.358-7.5-7.5-7.5z" fill="#676475"/><path d="m437 405h-399.5c-4.142 0-7.5 3.358-7.5 7.5v54.5h407z" fill="#817d93"/><path d="m467 435h-459.5c-4.142 0-7.5 3.358-7.5 7.5v47c0 4.142 3.358 7.5 7.5 7.5h459.5z" fill="#9a96b0"/><path d="m248.5 60v90c24.853 0 45-20.147 45-45s-20.147-45-45-45z" fill="#817d93"/><path d="m263.5 105c0-24.853-6.716-45-15-45-24.853 0-45 20.147-45 45s20.147 45 45 45c8.284 0 15-20.147 15-45z" fill="#9a96b0"/><path d="m377 195-128.5 30-128.5-30v150l128.5-30 128.5 30z" fill="#ffd693"/><path d="m165 300h167l45 45h-257z" fill="#fff0b8"/><path d="m165 240h167l45-45h-257z" fill="#fff0b8"/><path d="m150 225h197v90h-197z" fill="#817d93"/><g fill="#4a4854"><path d="m317 262.5h-137c-4.142 0-7.5-3.358-7.5-7.5s3.358-7.5 7.5-7.5h137c4.142 0 7.5 3.358 7.5 7.5s-3.358 7.5-7.5 7.5z"/><path d="m317 292.5h-137c-4.142 0-7.5-3.358-7.5-7.5s3.358-7.5 7.5-7.5h137c4.142 0 7.5 3.358 7.5 7.5s-3.358 7.5-7.5 7.5z"/></g></g></svg>