<?xml version="1.0"?>
<svg xmlns="http://www.w3.org/2000/svg" xmlns:xlink="http://www.w3.org/1999/xlink" xmlns:svgjs="http://svgjs.com/svgjs" version="1.1" width="512" height="512" x="0" y="0" viewBox="0 0 511.999 511.999" style="enable-background:new 0 0 512 512" xml:space="preserve" class=""><g>
<path xmlns="http://www.w3.org/2000/svg" style="" d="M415.381,504.51H96.619c-9.548,0-17.287-7.74-17.287-17.287V90.746  c0-9.548,7.74-17.287,17.287-17.287H415.38c9.548,0,17.287,7.74,17.287,17.287v396.477  C432.668,496.771,424.928,504.51,415.381,504.51z" fill="#c2c4c6" data-original="#d0d1d2" class=""/>
<path xmlns="http://www.w3.org/2000/svg" style="" d="M415.381,73.459h-32.312V504.51h32.312c9.548,0,17.287-7.74,17.287-17.287V90.746  C432.668,81.198,424.928,73.459,415.381,73.459z" fill="#c2c4c6" data-original="#c2c4c6" class=""/>
<path xmlns="http://www.w3.org/2000/svg" style="" d="M380.357,454.258H131.643c-7.428,0-13.45-6.022-13.45-13.45V73.459h34.114h241.499v367.35  C393.806,448.236,387.785,454.258,380.357,454.258z" fill="#f52837" data-original="#f9644b" class=""/>
<path xmlns="http://www.w3.org/2000/svg" style="" d="M344.873,73.459v380.799h35.484c7.428,0,13.45-6.021,13.45-13.45V73.459H344.873z" fill="#f52837" data-original="#db3f2e" class=""/>
<path xmlns="http://www.w3.org/2000/svg" style="" d="M317.611,97.523H194.389c-3.747,0-6.784-3.037-6.784-6.784V56.178c0-3.747,3.037-6.784,6.784-6.784  h123.223c3.747,0,6.784,3.037,6.784,6.784v34.561C324.395,94.486,321.358,97.523,317.611,97.523z" fill="#465064" data-original="#2c5871" class=""/>
<path xmlns="http://www.w3.org/2000/svg" style="" d="M317.611,49.394h-42.482v48.129h42.482c3.747,0,6.784-3.037,6.784-6.784V56.178  C324.396,52.431,321.358,49.394,317.611,49.394z" fill="#465064" data-original="#1d4859" class=""/>
<path xmlns="http://www.w3.org/2000/svg" style="" d="M340.61,234.178h-62.462v-62.462c0-1.99-1.613-3.604-3.604-3.604h-37.089  c-1.99,0-3.604,1.613-3.604,3.604v62.462H171.39c-1.99,0-3.604,1.613-3.604,3.604v37.089c0,1.99,1.613,3.604,3.604,3.604h62.462  v62.462c0,1.99,1.613,3.604,3.604,3.604h37.089c1.99,0,3.604-1.613,3.604-3.604v-62.462h62.462c1.99,0,3.604-1.613,3.604-3.604  v-37.089C344.214,235.791,342.6,234.178,340.61,234.178z" fill="#ffffff" data-original="#ffffff"/>
<path xmlns="http://www.w3.org/2000/svg" d="M171.39,285.964h54.971v54.972c0,6.117,4.977,11.093,11.094,11.093h37.088c6.118,0,11.094-4.977,11.094-11.093v-54.972  h54.971c6.117,0,11.093-4.977,11.093-11.094v-37.088c0-6.117-4.977-11.094-11.093-11.094h-54.971v-54.972  c0-6.117-4.977-11.093-11.094-11.093h-37.088c-6.118,0-11.094,4.977-11.094,11.093v54.972H171.39  c-6.117,0-11.093,4.977-11.093,11.094v37.088C160.297,280.987,165.273,285.964,171.39,285.964z M175.276,241.668h58.575  c4.137,0,7.49-3.353,7.49-7.49v-58.575h29.318v58.575c0,4.136,3.353,7.49,7.49,7.49h58.575v29.317h-58.575  c-4.137,0-7.49,3.353-7.49,7.49v58.575h-29.318v-58.575c0-4.136-3.353-7.49-7.49-7.49h-58.575V241.668z" fill="#000000" data-original="#000000" style="" class=""/>
<path xmlns="http://www.w3.org/2000/svg" d="M415.381,65.969h-56.146c-4.137,0-7.49,3.353-7.49,7.49s3.353,7.49,7.49,7.49h27.081v359.86c0,3.286-2.673,5.96-5.96,5.96  H131.643c-3.287,0-5.96-2.674-5.96-5.96V80.948l0,0h26.957c4.137,0,7.49-3.353,7.49-7.49s-3.353-7.49-7.49-7.49l0,0H96.619l0,0  c-13.662,0-24.777,11.115-24.777,24.777v396.477c0,13.662,11.115,24.777,24.777,24.777H415.38c13.662,0,24.777-11.115,24.777-24.777  V90.746C440.158,77.084,429.043,65.969,415.381,65.969z M425.178,487.223c0,5.402-4.395,9.797-9.797,9.797H96.619  c-5.402,0-9.797-4.395-9.797-9.797V90.746c0-5.402,4.395-9.798,9.797-9.798h14.084v359.86c0,11.546,9.394,20.939,20.939,20.939  h248.714c11.546,0,20.939-9.394,20.939-20.939V80.948h14.084c5.402,0,9.797,4.395,9.797,9.798v396.477H425.178z" fill="#000000" data-original="#000000" style="" class=""/>
<path xmlns="http://www.w3.org/2000/svg" d="M194.389,105.013h123.222c7.871,0,14.275-6.403,14.275-14.274V56.178c0-7.871-6.403-14.274-14.275-14.274h-20.288v-0.581  C297.323,18.537,278.786,0,256,0s-41.323,18.537-41.323,41.323v0.581h-20.288c-7.871,0-14.275,6.403-14.275,14.274v34.561  C180.115,98.61,186.518,105.013,194.389,105.013z M229.657,41.323c0-14.526,11.818-26.343,26.343-26.343  c14.525,0,26.343,11.817,26.343,26.343v0.581h-52.686L229.657,41.323L229.657,41.323z M195.094,56.884h121.811v33.149H195.094  V56.884z" fill="#000000" data-original="#000000" style="" class=""/>
<g xmlns="http://www.w3.org/2000/svg">
</g>
<g xmlns="http://www.w3.org/2000/svg">
</g>
<g xmlns="http://www.w3.org/2000/svg">
</g>
<g xmlns="http://www.w3.org/2000/svg">
</g>
<g xmlns="http://www.w3.org/2000/svg">
</g>
<g xmlns="http://www.w3.org/2000/svg">
</g>
<g xmlns="http://www.w3.org/2000/svg">
</g>
<g xmlns="http://www.w3.org/2000/svg">
</g>
<g xmlns="http://www.w3.org/2000/svg">
</g>
<g xmlns="http://www.w3.org/2000/svg">
</g>
<g xmlns="http://www.w3.org/2000/svg">
</g>
<g xmlns="http://www.w3.org/2000/svg">
</g>
<g xmlns="http://www.w3.org/2000/svg">
</g>
<g xmlns="http://www.w3.org/2000/svg">
</g>
<g xmlns="http://www.w3.org/2000/svg">
</g>
</g></svg>
