<svg id="_x33_0" enable-background="new 0 0 64 64" height="512" viewBox="0 0 64 64" width="512" xmlns="http://www.w3.org/2000/svg"><g><g><g><path d="m28.24 44c.41 1.82 1.35 3.5 2.73 4.8l3.03 2.85v10.35h-24v-10h-6-2v-6.9c0-2.01.68-3.95 1.94-5.52 1.33-1.66 3.21-2.79 5.31-3.17l2.73-.5.02.09 4 7 6-5 6 5 .06-.01c.04.34.1.68.18 1.01z" fill="#b4dd7f"/></g><g><path d="m28 41.92c0 .36.02.72.06 1.07l-.06.01-6-5 5-3 3.4.62c-.71.8-1.28 1.7-1.68 2.68-.47 1.14-.72 2.36-.72 3.62z" fill="#a0d468"/></g><g><path d="m22 38-6 5-4-7-.02-.09 5.02-.91z" fill="#a0d468"/></g><g><path d="m16.19 12.03-.19.07c-2.28.46-4 2.48-4 4.9v1h-1c-.8 0-1.52.31-2.05.81l-.6-2.43c-.23-.92-.35-1.86-.35-2.8 0-3.2 1.3-6.1 3.39-8.19s4.99-3.39 8.19-3.39h12.42c2.21 0 4 1.79 4 4v1 1c0 2.65-1.73 4.91-4.11 5.69-.59.2-1.23.31-1.89.31h-11c-1.3 0-2.4-.82-2.81-1.97z" fill="#b27946"/></g><g><path d="m36 21c0-1.66-1.34-3-3-3h-1v-4l-.11-.31c2.38-.78 4.11-3.04 4.11-5.69z" fill="#b27946"/></g><g><path d="m59 6.51c0 .94-.43 1.83-1.16 2.42l-3.84 3.07-3.84-3.07c-.73-.59-1.16-1.48-1.16-2.42 0-.93.52-1.77 1.35-2.19.43-.21.9-.32 1.38-.32.81 0 1.59.32 2.17.9l.1.1.1-.1c.58-.58 1.36-.9 2.17-.9.48 0 .95.11 1.38.32.83.42 1.35 1.26 1.35 2.19z" fill="#ff826e"/></g><g><path d="m52 21.51c0 .94-.43 1.83-1.16 2.42l-3.84 3.07-3.84-3.07c-.73-.59-1.16-1.48-1.16-2.42 0-.93.52-1.77 1.35-2.19.43-.21.9-.32 1.38-.32.81 0 1.59.32 2.17.9l.1.1.1-.1c.58-.58 1.36-.9 2.17-.9.48 0 .95.11 1.38.32.83.42 1.35 1.26 1.35 2.19z" fill="#ff826e"/></g><g><path d="m59.23 35.23-.4-.4c-.91-.91-1.97-1.61-3.13-2.09s-2.42-.74-3.7-.74c-2.56 0-5.02 1.02-6.83 2.83l-.17.17-.17-.17c-.91-.91-1.97-1.61-3.13-2.09s-2.42-.74-3.7-.74c-2.56 0-5.02 1.02-6.83 2.83l-.4.4c-.13.13-.25.26-.37.39-.71.8-1.28 1.7-1.68 2.68-.47 1.14-.72 2.36-.72 3.62 0 .36.02.72.06 1.07.04.34.1.68.18 1.01.41 1.82 1.35 3.5 2.73 4.8l3.03 2.85 6 5.64v.01l5 4.7 14.03-13.2c.86-.81 1.55-1.76 2.04-2.8.05-.11.1-.23.15-.34.51-1.17.78-2.44.78-3.74 0-2.51-1-4.92-2.77-6.69z" fill="#ff826e"/></g><g><path d="m40 57.3v4.7h-6v-10.35l6 5.64z" fill="#f0d0b4"/></g><g><path d="m4 52h6v10h-6z" fill="#f0d0b4"/></g><g><path d="m33 18c1.66 0 3 1.34 3 3 0 .83-.34 1.58-.88 2.12s-1.29.88-2.12.88h-1.46c.3-.95.46-1.95.46-3v-3z" fill="#f0d0b4"/></g><g><path d="m26.03 30.15.97 4.85-5 3-5-3 .97-4.85c1.23.55 2.6.85 4.03.85s2.8-.3 4.03-.85z" fill="#f0d0b4"/></g><g><path d="m32 14v4 3c0 1.05-.16 2.05-.46 3-.49 1.56-1.35 2.95-2.47 4.07-.87.87-1.9 1.58-3.04 2.08-1.23.55-2.6.85-4.03.85s-2.8-.3-4.03-.85c-2.62-1.15-4.64-3.39-5.51-6.15-.3-.95-.46-1.95-.46-3v-3-1c0-2.42 1.72-4.44 4-4.9l.19-.07c.41 1.15 1.51 1.97 2.81 1.97h11c.66 0 1.3-.11 1.89-.31z" fill="#f0d0b4"/></g><g><path d="m12.46 24h-1.46c-.83 0-1.58-.34-2.12-.88s-.88-1.29-.88-2.12c0-.86.36-1.64.95-2.19.53-.5 1.25-.81 2.05-.81h1v3c0 1.05.16 2.05.46 3z" fill="#f0d0b4"/></g></g><g><path d="m47 28.281 4.461-3.569c.978-.783 1.539-1.95 1.539-3.202 0-1.313-.729-2.493-1.904-3.08-1.299-.649-2.92-.532-4.096.262-1.176-.794-2.795-.911-4.097-.262-1.174.588-1.903 1.768-1.903 3.08 0 1.252.561 2.419 1.539 3.201zm-3.203-8.062c.287-.143.609-.219.929-.219.554 0 1.076.216 1.467.607l.807.807.806-.806c.619-.619 1.614-.78 2.396-.389.492.246.798.741.798 1.291 0 .641-.287 1.239-.788 1.64l-3.212 2.569-3.212-2.569c-.501-.401-.788-.999-.788-1.64 0-.55.306-1.045.797-1.291z"/><path d="m54 13.281 4.461-3.569c.978-.783 1.539-1.95 1.539-3.202 0-1.313-.729-2.493-1.904-3.08-1.299-.648-2.919-.533-4.096.262-1.175-.794-2.794-.91-4.097-.262-1.174.588-1.903 1.768-1.903 3.08 0 1.252.561 2.419 1.539 3.201zm-3.203-8.062c.287-.143.609-.219.929-.219.554 0 1.076.216 1.467.607l.807.807.806-.806c.619-.619 1.613-.78 2.396-.389.492.246.798.741.798 1.291 0 .641-.287 1.239-.788 1.64l-3.212 2.569-3.212-2.569c-.501-.401-.788-.999-.788-1.64 0-.55.306-1.045.797-1.291z"/><path d="m59.939 34.524-.403-.403c-2.014-2.013-4.69-3.121-7.536-3.121-2.6 0-5.059.925-7 2.62-1.94-1.695-4.399-2.62-7-2.62-2.846 0-5.522 1.108-7.536 3.121l-.402.403c-.005.005-.008.01-.013.014l-2.201-.401-.686-3.43c2.304-1.23 4.113-3.256 5.075-5.708h.763c2.206 0 4-1.794 4-4v-12.999-1-1c0-2.757-2.243-5-5-5h-12.425c-6.934 0-12.575 5.641-12.575 12.575 0 1.027.126 2.053.375 3.05l.482 1.93c-.528.678-.857 1.52-.857 2.445 0 2.206 1.794 4 4 4h.764c.962 2.452 2.771 4.478 5.075 5.708l-.686 3.43-7.08 1.287c-2.334.425-4.436 1.679-5.919 3.531-1.389 1.736-2.154 3.918-2.154 6.142v7.902h2v10h38v-3.392l4 3.765 14.711-13.846c2.09-1.966 3.289-4.741 3.289-7.611 0-2.792-1.087-5.417-3.061-7.392zm-28.061 1.011c1.636-1.635 3.81-2.535 6.122-2.535s4.486.9 6.121 2.534l.879.882.878-.881c1.636-1.635 3.81-2.535 6.122-2.535s4.486.9 6.121 2.535l.403.403c1.597 1.597 2.476 3.72 2.476 5.978 0 1.064-.213 2.108-.596 3.084h-10.081l-1.938 4.844c-.037.094-.13.156-.231.156h-.178c-.115 0-.214-.078-.242-.188l-2.526-10.108c-.252-1.004-1.15-1.704-2.184-1.704-1.069 0-1.996.761-2.206 1.809l-1.599 7.99c-.022.117-.125.201-.243.201h-.129c-.101 0-.194-.063-.231-.156l-1.939-4.844h-7.598c-.047-.358-.079-.719-.079-1.084 0-2.258.879-4.381 2.476-5.978zm-3.244.778c-.881 1.381-1.428 2.944-1.585 4.592l-3.327-2.773 3.47-2.082zm4.366-13.313h-.191c.12-.65.191-1.316.191-2v-2c1.103 0 2 .897 2 2s-.897 2-2 2zm2-5.444c-.591-.344-1.268-.556-2-.556v-2.685c.749-.357 1.426-.839 2-1.425zm-15.425-14.556h12.425c1.654 0 3 1.346 3 3v1 1c0 2.757-2.243 5-5 5h-11c-1.103 0-2-.897-2-2s.897-2 2-2v-2c-2.206 0-4 1.794-4 4 0 .119.025.231.035.347-2.375.828-4.035 3.081-4.035 5.653-.495 0-.964.102-1.402.267l-.282-1.127c-.21-.839-.316-1.702-.316-2.565 0-5.831 4.744-10.575 10.575-10.575zm-8.575 20c-1.103 0-2-.897-2-2s.897-2 2-2v2c0 .684.071 1.35.191 2zm2-2v-4c0-1.713 1.103-3.214 2.683-3.767.72 1.065 1.938 1.767 3.317 1.767h11c.34 0 .672-.033 1-.08v6.08c0 4.962-4.038 9-9 9s-9-4.038-9-9zm9 11c1.142 0 2.244-.176 3.28-.5l.601 3.005-3.881 2.329-3.881-2.329.601-3.005c1.036.324 2.138.5 3.28.5zm-5.192 4.051 3.47 2.082-4.002 3.335-2.754-4.819zm-13.808 9.047c0-1.771.609-3.509 1.716-4.892 1.181-1.477 2.855-2.476 4.715-2.813l2.005-.365 4.288 7.504 6.276-5.23 5.15 4.292c.37 2.252 1.46 4.354 3.138 5.933l2.712 2.552v8.921h-22v-14h-2v4h-6zm2 7.902h4v8h-4zm34 8h-4v-7.039l4 3.765zm6-.373-13.34-12.557c-.915-.861-1.61-1.917-2.064-3.07h5.727l1.435 3.586c.343.859 1.163 1.414 2.088 1.414h.129c1.069 0 1.996-.761 2.206-1.809l1.599-7.99c.045-.23.431-.237.487-.013l2.526 10.108c.251 1.004 1.149 1.704 2.183 1.704h.178c.925 0 1.745-.555 2.089-1.414l1.434-3.586h7.608c-.285.379-.595.742-.945 1.07z"/><path d="m18 19c.551 0 1 .449 1 1h2c0-1.654-1.346-3-3-3s-3 1.346-3 3h2c0-.551.449-1 1-1z"/><path d="m26 19c.551 0 1 .449 1 1h2c0-1.654-1.346-3-3-3s-3 1.346-3 3h2c0-.551.449-1 1-1z"/><path d="m26.897 24.47.051-.154-1.897-.633-.051.155c-.431 1.293-1.637 2.162-3 2.162s-2.569-.869-3-2.163l-.051-.154-1.897.633.051.153c.703 2.113 2.671 3.531 4.897 3.531s4.194-1.418 4.897-3.53z"/></g></g></svg>