<?xml version="1.0"?>
<svg xmlns="http://www.w3.org/2000/svg" xmlns:xlink="http://www.w3.org/1999/xlink" xmlns:svgjs="http://svgjs.com/svgjs" version="1.1" width="512" height="512" x="0" y="0" viewBox="0 0 64 64" style="enable-background:new 0 0 512 512" xml:space="preserve" class=""><g><g xmlns="http://www.w3.org/2000/svg" id="Flat"><path d="m53 24.267c0 18.366-21 36.733-21 36.733s-21-18.367-21-36.733a21 21 0 1 1 42 0z" fill="#ffffff" data-original="#fa4b4b" style="" class=""/><path d="m19.625 46.953a86.778 86.778 0 0 0 12.375 14.047s17.6-15.4 20.567-32.1c-8.144 9.04-20.061 15.6-32.942 18.053z" fill="#ffffff" data-original="#dc3c46" style="" class=""/><circle cx="32" cy="24" fill="#eeeeee" r="17" data-original="#eeeeee" style="" class=""/><g fill="#ad2a37"><path d="m34 32v-14h-7v4h3v10h-3v4h10v-4z" fill="#000000" data-original="#ad2a37" style="" class=""/><path d="m30 12h4v4h-4z" fill="#000000" data-original="#ad2a37" style="" class=""/></g></g></g></svg>
