<?xml version="1.0" encoding="UTF-8"?>
<svg xmlns="http://www.w3.org/2000/svg" xmlns:xlink="http://www.w3.org/1999/xlink" width="512" height="512" viewBox="0 0 58 59" version="1.1"><!-- Generator: Sketch 51.3 (57544) - http://www.bohemiancoding.com/sketch --><title>034 - Life Insurance</title><desc>Created with Sketch.</desc><defs/><g id="Page-1" stroke="none" stroke-width="1" fill="none" fill-rule="evenodd"><g id="034---Life-Insurance" fill-rule="nonzero"><path d="M52,12.19 C52,20.31 46.89,23.56 43.48,26.81 C40.28,29.86 30.33,37.92 29.12,38.9 C29.0886507,38.9215447 29.0585986,38.9449186 29.03,38.97 L29,39 L28.97,38.97 C28.9414014,38.9449186 28.9113493,38.9215447 28.88,38.9 C27.67,37.92 17.72,29.86 14.52,26.81 C11.11,23.56 6,20.31 6,12.19 C6,4.07 11.11,0 17.93,0 C18.19,0 18.44,0.01 18.68,0.02 C23.0055733,0.261202204 26.9035246,2.70875298 29,6.5 C31.0964754,2.70875298 34.9944267,0.261202204 39.32,0.02 C39.56,0.01 39.81,0 40.07,0 C46.89,0 52,4.06 52,12.19 Z" id="Shape" fill="#DF4D60"/><path d="M49,12.19 C49,20.31 44.56,23.56 41.59,26.81 C38.82,29.85 30.21,37.88 29.12,38.9 C29.0886507,38.9215447 29.0585986,38.9449186 29.03,38.97 L29,39 L28.97,38.97 C28.9414014,38.9449186 28.9113493,38.9215447 28.88,38.9 C27.79,37.88 19.18,29.85 16.41,26.81 C13.44,23.56 9,20.31 9,12.19 C9,4.38 13.1,0.32 18.68,0.02 C23.0055733,0.261202204 26.9035246,2.70875298 29,6.5 C31.0964754,2.70875298 34.9944267,0.261202204 39.32,0.02 C44.9,0.32 49,4.38 49,12.19 Z" id="Shape" fill="#FF5364"/><path d="M38,26 L37.96,26 C37.5036067,25.9817883 37.1175557,25.6566493 37.022,25.21 L34.922,15.424 L33.967,19.244 C33.8554274,19.6874514 33.4572701,19.9987305 33,20 L27.721,20 L26.949,22.316 C26.7993246,22.7234976 26.4130965,22.9958481 25.979,23 C25.5405998,22.9905677 25.1594865,22.6966239 25.039,22.275 L23.977,18.558 L21.958,25.287 C21.8222199,25.7218537 21.4133446,26.0129729 20.958,25.999 C20.5016067,25.9807883 20.1155557,25.6556493 20.02,25.209 L17.92,15.423 L16.965,19.243 C16.8539985,19.6861288 16.4568142,19.9977024 16,20 L1,20 C0.44771525,20 0,19.5522847 0,19 C-1.11022302e-16,18.4477153 0.44771525,18 1,18 L15.219,18 L17.03,10.757 C17.135125,10.300774 17.5491187,9.983253 18.017,10 C18.4823821,10.0078876 18.880788,10.335816 18.978,10.791 L21.162,20.981 L23.042,14.713 C23.1521113,14.2758065 23.5557261,13.9772823 24.006,14 C24.4499819,14.0028638 24.8389117,14.2981247 24.961,14.725 L26.075,18.625 C26.22753,18.2479334 26.5932519,18.0008239 27,18 L32.219,18 L34.03,10.757 C34.1429983,10.3056777 34.5523266,9.99190796 35.0175088,10.0000272 C35.482691,10.0081464 35.8808203,10.3360093 35.978,10.791 L38.162,20.981 L40.042,14.713 C40.1687875,14.2898167 40.5582318,13.9999693 41,14 L41.006,14 C41.4499819,14.0028638 41.8389117,14.2981247 41.961,14.725 L43.075,18.625 C43.22753,18.2479334 43.5932519,18.0008239 44,18 L57,18 C57.5522847,18 58,18.4477153 58,19 C58,19.5522847 57.5522847,20 57,20 L44.721,20 L43.949,22.316 C43.7960487,22.720973 43.4118185,22.9919147 42.979,23 C42.5405998,22.9905677 42.1594865,22.6966239 42.039,22.275 L40.977,18.558 L38.958,25.287 C38.8312125,25.7101833 38.4417682,26.0000307 38,26 Z" id="Shape" fill="#F3D55B"/><path d="M13.316,41.738 L8.748,37.169 C7.7681854,36.1891673 6.98418578,35.0314951 6.438,33.758 L4.2,28.539 C3.85513073,27.7350887 3.06476152,27.213681 2.19,27.213 C1.44646337,27.2140738 0.754308811,27.5925026 0.352092311,28.2178583 C-0.0501241893,28.843214 -0.107402032,29.6299831 0.2,30.307 L4.119,38.929 C4.59961649,39.9858913 5.26620497,40.9478381 6.087,41.769 L13.316,49 L23,49 L23,46.139 C23.0326513,43.9976631 22.3373789,41.908673 21.028,40.214 C20.2961932,39.248342 19.2994007,38.5162954 18.159,38.107 C15.9390106,37.1700159 13.8927151,35.8657688 12.106,34.249 C10.6792055,33.057914 8.57863147,33.1551709 7.268,34.473" id="Shape" fill="#FDD7AD"/><path d="M44.682,41.738 L49.251,37.169 C50.2308146,36.1891673 51.0148142,35.0314951 51.561,33.758 L53.8,28.539 C54.1451559,27.7344212 54.9365118,27.2128815 55.812,27.213 C56.5551814,27.2147517 57.2467117,27.5934549 57.6484508,28.2186967 C58.0501899,28.8439386 58.107257,29.6303059 57.8,30.307 L53.881,38.929 C53.4003835,39.9858913 52.733795,40.9478381 51.913,41.769 L44.682,49 L35,49 L35,46.139 C34.9676344,43.997544 35.6632634,41.9085416 36.973,40.214 C37.7048068,39.248342 38.7015993,38.5162954 39.842,38.107 C42.0616805,37.1700017 44.1076446,35.8657503 45.894,34.249 C47.3212824,33.0582638 49.4218253,33.1554991 50.733,34.473" id="Shape" fill="#FDD7AD"/><rect id="Rectangle-path" fill="#41767F" transform="translate(39.500000, 54.000000) rotate(-180.000000) translate(-39.500000, -54.000000) " x="33" y="49" width="13" height="10" rx="1"/><path d="M38,55 L37,55 C36.4477153,55 36,54.5522847 36,54 C36,53.4477153 36.4477153,53 37,53 L38,53 C38.5522847,53 39,53.4477153 39,54 C39,54.5522847 38.5522847,55 38,55 Z" id="Shape" fill="#2C3E50"/><rect id="Rectangle-path" fill="#41767F" x="11.999" y="49" width="13" height="10" rx="1"/><path d="M21,55 L20,55 C19.4477153,55 19,54.5522847 19,54 C19,53.4477153 19.4477153,53 20,53 L21,53 C21.5522847,53 22,53.4477153 22,54 C22,54.5522847 21.5522847,55 21,55 Z" id="Shape" fill="#2C3E50"/><path d="M14.92,41.99 C14.5256639,42.3767403 13.8943361,42.3767403 13.5,41.99 L8.93,37.42 C8.26487524,36.7545304 7.68081611,36.0127081 7.19,35.21 C7.1,35.06 7.02,34.92 6.94,34.77 L7.32,34.42 C7.67833639,34.059544 8.11205442,33.7829206 8.59,33.61 C9.05144569,34.4946972 9.64491409,35.3039723 10.35,36.01 L14.92,40.57 C15.3099779,40.9630079 15.3099779,41.5969921 14.92,41.99 Z" id="Shape" fill="#F09372"/><path d="M43.158,41.99 C43.5523361,42.3767403 44.1836639,42.3767403 44.578,41.99 L49.148,37.42 C49.8131248,36.7545304 50.3971839,36.0127081 50.888,35.21 C50.978,35.06 51.058,34.92 51.138,34.77 L50.758,34.42 C50.3996636,34.059544 49.9659456,33.7829206 49.488,33.61 C49.0265543,34.4946972 48.4330859,35.3039723 47.728,36.01 L43.158,40.57 C42.7680221,40.9630079 42.7680221,41.5969921 43.158,41.99 Z" id="Shape" fill="#F09372"/></g></g></svg>
