<svg id="Capa_1" enable-background="new 0 0 512 512" height="512" viewBox="0 0 512 512" width="512" xmlns="http://www.w3.org/2000/svg"><g><g><g><path d="m442.793 304.991h-32.942v-181.387c0-64.122-51.982-116.104-116.105-116.104h-16.302c-64.123 0-116.104 51.982-116.104 116.104v181.387h-21.56v62.964l13.473-13.76c2.929-2.928 6.826-4.545 10.967-4.545 4.108 0 7.966 1.595 10.862 4.492 6.002 6.002 5.973 15.797-.064 21.834l-35.609 35.609v92.915h338.385c5.523 0 10-4.477 10-10v-144.509c-.001-24.853-20.148-45-45.001-45z" fill="#f3f0f3"/></g><g fill="#e2dee2"><path d="m161.34 155.194c0-33.359 17.814-62.636 44.428-78.818 16.929-37.969 53.635-65.179 97.033-68.527-2.988-.23-6.008-.349-9.055-.349h-16.302c-64.123 0-116.104 51.982-116.104 116.104z"/><path d="m161.34 209.075v95.916h-20.56v35.774c6.513-3.665 14.024-5.765 22.03-5.765h17.942c8.284 0 15-6.716 15-15v-34.398c-21.098-18.78-34.412-46.126-34.412-76.527z"/></g><path d="m268.373 311.533h34.444v192.967h-34.444z" fill="#e2dee2"/><g><path d="m263.798 311.533c-56.495 0-102.458-45.963-102.458-102.459v-53.88c0-50.824 41.348-92.172 92.172-92.172h64.168c50.823 0 92.172 41.348 92.172 92.172v53.88c0 56.496-45.963 102.459-102.459 102.459z" fill="#b5adb6"/></g><path d="m222.926 269.305c-19.448-13.302-32.217-35.655-32.217-60.997v-51.986c0-22.4 11.529-42.096 28.967-53.513 16.654-24.022 44.415-39.787 75.794-39.787h-41.959c-50.823 0-92.172 41.348-92.172 92.172v53.88c0 56.496 45.963 102.459 102.458 102.459h41.959c-34.002 0-64.183-16.654-82.83-42.228z" fill="#a79ba7"/><g><g><path d="m306.625 282.164h-42.061c-40.789 0-73.856-33.066-73.856-73.856v-51.986c0-35.308 28.623-63.931 63.931-63.931h61.911c35.308 0 63.931 28.623 63.931 63.931v51.986c0 40.79-33.066 73.856-73.856 73.856z" fill="#fed2a4"/></g><path d="m297.595 179h-24l-15 19h-67.886v10.308c0 40.789 33.066 73.856 73.856 73.856h42.061c40.79 0 73.856-33.066 73.856-73.856v-10.308h-67.886z" fill="#fff"/><g><g><path d="m233.85 119c11.608-16.11 30.517-26.608 51.89-26.608h-31.1c-21.373 0-40.282 10.498-51.89 26.608z" fill="#ffbd86"/></g></g><g><path d="m221.81 208.308v-10.308h-31.1v10.308c0 40.789 33.066 73.856 73.856 73.856h31.1c-40.79 0-73.856-33.066-73.856-73.856z" fill="#f3f0f3"/></g><g><path d="m368.441 119h-165.691c-7.568 10.504-12.041 23.387-12.041 37.323v41.677h67.886l15-19h24l15 19h67.886v-41.677c0-13.936-4.472-26.819-12.04-37.323z" fill="#8ac9fe"/></g><g><path d="m190.709 156.323v41.677h31.1v-41.677c0-13.935 4.472-26.819 12.041-37.323h-31.1c-7.569 10.504-12.041 23.387-12.041 37.323z" fill="#60b7ff"/></g></g><g><g><path d="m431.595 399.5h-16.5c-1.657 0-3-1.343-3-3v-16.5c0-1.657-1.343-3-3-3h-19c-1.657 0-3 1.343-3 3v16.5c0 1.657-1.343 3-3 3h-16.5c-1.657 0-3 1.343-3 3v19c0 1.657 1.343 3 3 3h16.5c1.657 0 3 1.343 3 3v16.5c0 1.657 1.343 3 3 3h19c1.657 0 3-1.343 3-3v-16.5c0-1.657 1.343-3 3-3h16.5c1.657 0 3-1.343 3-3v-19c0-1.657-1.343-3-3-3z" fill="#05e39c"/></g></g><g><path d="m175.789 353.435c-6.404-6.404-16.815-6.375-23.251.061l-11.758 12.009v-93.061c.015-5.651-4.596-10.263-10.249-10.247l-4.513.012c-5.651.015-10.286 4.651-10.302 10.302v71.385l-5.41.015v-80.914c.016-5.65-4.596-10.263-10.247-10.247l-4.515.012c-5.653.015-10.288 4.651-10.303 10.303v80.913l-5.435.014v-80.916c.015-5.65-4.597-10.261-10.247-10.248l-4.514.014c-5.649.012-10.285 4.647-10.301 10.301v80.916l-5.476.013v-67.027c.016-5.652-4.595-10.264-10.247-10.247l-4.511.013c-5.652.015-10.286 4.648-10.302 10.302v217.369c-.01 5.53 4.089 10.018 9.619 10.018h106.582v-92.5l35.316-35.316c6.436-6.437 6.465-16.848.064-23.249z" fill="#05e39c"/></g><g><g><path d="m51.81 494.482v-150.415l-2.542.006v-67.027c.016-5.652-4.595-10.264-10.247-10.247l-4.511.013c-5.652.015-10.286 4.648-10.302 10.302v217.369c-.01 5.53 4.089 10.018 9.619 10.018h27.602c-5.53-.001-9.629-4.489-9.619-10.019z" fill="#0ed290"/></g></g></g><g><path d="m243.8 137.038c-4.142 0-7.5 3.358-7.5 7.5v21.462c0 4.142 3.358 7.5 7.5 7.5s7.5-3.358 7.5-7.5v-21.462c0-4.142-3.358-7.5-7.5-7.5z"/><path d="m327.39 137.038c-4.142 0-7.5 3.358-7.5 7.5v21.462c0 4.142 3.358 7.5 7.5 7.5s7.5-3.358 7.5-7.5v-21.462c0-4.142-3.358-7.5-7.5-7.5z"/><path d="m316.55 84.892h-61.91c-39.387 0-71.431 32.043-71.431 71.431v51.986c0 44.86 36.496 81.356 81.356 81.356h27.245c4.142 0 7.5-3.358 7.5-7.5s-3.358-7.5-7.5-7.5h-27.245c-36.589 0-66.356-29.767-66.356-66.356v-2.809h55.54c5.39 0 10.396-2.426 13.736-6.656l8.994-11.393c.477-.604 1.192-.951 1.962-.951h14.308c.77 0 1.485.347 1.962.951l8.994 11.392c3.339 4.23 8.346 6.657 13.736 6.657h55.54v2.808c0 29.528-19.828 55.773-48.218 63.825-3.985 1.13-6.299 5.277-5.169 9.262s5.279 6.298 9.262 5.169c34.812-9.873 59.125-42.053 59.125-78.256v-51.986c0-39.387-32.043-71.43-71.431-71.43zm-61.91 15h61.911c12.863 0 24.728 4.335 34.229 11.608h-130.37c9.502-7.274 21.367-11.608 34.23-11.608zm118.341 90.608h-55.54c-.77 0-1.485-.347-1.962-.951l-8.994-11.392c-3.339-4.23-8.346-6.657-13.736-6.657h-14.308c-5.39 0-10.396 2.426-13.736 6.656l-8.994 11.393c-.477.604-1.192.951-1.962.951h-55.54v-34.178c0-10.944 3.142-21.163 8.555-29.822h157.662c5.414 8.66 8.555 18.879 8.555 29.822z"/><path d="m331.595 226.375c4.142 0 7.5-3.358 7.5-7.5s-3.358-7.5-7.5-7.5h-92c-4.142 0-7.5 3.358-7.5 7.5s3.358 7.5 7.5 7.5z"/><path d="m243.976 252.5h83.238c4.142 0 7.5-3.358 7.5-7.5s-3.358-7.5-7.5-7.5h-83.238c-4.142 0-7.5 3.358-7.5 7.5s3.358 7.5 7.5 7.5z"/><path d="m390.095 454.5h19c5.79 0 10.5-4.71 10.5-10.5v-12h12c5.79 0 10.5-4.71 10.5-10.5v-19c0-5.79-4.71-10.5-10.5-10.5h-12v-12c0-5.79-4.71-10.5-10.5-10.5h-19c-5.79 0-10.5 4.71-10.5 10.5v12h-12c-5.79 0-10.5 4.71-10.5 10.5v19c0 5.79 4.71 10.5 10.5 10.5h12v12c0 5.79 4.711 10.5 10.5 10.5zm-18-37.5v-10h12c5.79 0 10.5-4.71 10.5-10.5v-12h10v12c0 5.79 4.71 10.5 10.5 10.5h12v10h-12c-5.79 0-10.5 4.71-10.5 10.5v12h-10v-12c0-5.79-4.71-10.5-10.5-10.5z"/><path d="m487.793 382.5c4.142 0 7.5-3.358 7.5-7.5v-25.009c0-28.949-23.551-52.5-52.5-52.5h-25.442v-173.887c0-68.155-55.449-123.604-123.605-123.604h-16.302c-68.156 0-123.604 55.449-123.604 123.604v173.887h-5.56v-25.028c.013-4.745-1.833-9.209-5.196-12.572-3.352-3.351-7.796-5.194-12.521-5.194-.017 0-.035 0-.052 0l-4.513.012c-3.333.009-6.457.942-9.128 2.557-.862-2.538-2.304-4.865-4.259-6.819-3.352-3.352-7.796-5.195-12.521-5.195-.017 0-.035 0-.052 0l-4.514.013c-5.12.013-9.745 2.205-12.995 5.697-.137-.146-.276-.291-.418-.433-3.363-3.363-7.835-5.174-12.575-5.198l-4.507.014c-9.175.019-16.766 7.042-17.69 16.009-2.54-1.35-5.396-2.046-8.339-2.054l-4.51.013c-9.777.026-17.754 8.002-17.782 17.802v217.356c-.008 4.806 1.804 9.273 5.104 12.579 3.188 3.193 7.455 4.952 12.016 4.952h443.967c9.649 0 17.5-7.851 17.5-17.5v-84.502c0-4.142-3.358-7.5-7.5-7.5s-7.5 3.358-7.5 7.5v84.5c0 1.378-1.122 2.5-2.5 2.5h-167.478v-178.016c39.231-1.031 73.401-22.708 92.033-54.544v40.551c0 4.142 3.358 7.5 7.5 7.5h32.942c20.678 0 37.5 16.822 37.5 37.5v25.009c.001 4.142 3.359 7.5 7.501 7.5zm-210.349-367.5h16.302c51.097 0 94.058 35.473 105.568 83.084-18.043-25.715-47.906-42.561-81.636-42.561h-64.167c-33.73 0-63.593 16.846-81.636 42.562 11.511-47.612 54.472-83.085 105.569-83.085zm-16.571 482h-112.965v-23c0-4.142-3.358-7.5-7.5-7.5s-7.5 3.358-7.5 7.5v23h-99.082c-.573 0-1.031-.18-1.399-.549-.466-.466-.721-1.161-.72-1.968v-217.348c.004-1.526 1.296-2.819 2.823-2.823l4.512-.013h.008c.97 0 1.616.502 1.916.801.301.301.804.95.801 1.946v67.027c0 1.992.792 3.902 2.203 5.31 1.406 1.403 3.312 2.19 5.297 2.19h.018l5.476-.013c4.135-.01 7.482-3.365 7.482-7.5v-80.894c.004-1.527 1.294-2.82 2.824-2.823l4.51-.014h.007c.971 0 1.619.503 1.919.803.301.301.805.951.803 1.944v80.916c0 1.993.793 3.903 2.204 5.31 1.406 1.403 3.311 2.19 5.296 2.19h.02l5.435-.014c4.134-.011 7.48-3.366 7.48-7.5v-80.894c.004-1.526 1.296-2.818 2.824-2.822l4.516-.013h.008c.969 0 1.616.502 1.916.802.3.301.805.951.802 1.945v80.914c0 1.993.793 3.904 2.204 5.311s3.335 2.212 5.317 2.189l5.411-.015c4.134-.012 7.479-3.366 7.479-7.5v-71.365c.004-1.526 1.297-2.818 2.822-2.823l4.514-.012h.008c.97 0 1.618.502 1.917.802.3.3.804.95.802 1.945v93.061c0 3.048 1.844 5.792 4.667 6.944 2.82 1.151 6.059.481 8.192-1.696l11.703-11.953c1.702-1.702 3.958-2.642 6.354-2.648h.024c2.372 0 4.596.918 6.266 2.588 3.468 3.468 3.439 9.139-.064 12.642l-35.316 35.316c-1.407 1.406-2.197 3.314-2.197 5.303v27c0 4.142 3.358 7.5 7.5 7.5s7.5-3.358 7.5-7.5v-23.894l33.12-33.12c9.352-9.352 9.38-24.539.064-33.855-8.963-8.963-23.358-9.28-32.813-.918v-34.723h13.06c4.142 0 7.5-3.358 7.5-7.5v-40.552c18.633 31.836 52.803 53.513 92.034 54.544v178.019zm34.444 0h-19.444v-177.967h19.444zm107.034-287.925c0 52.36-42.599 94.958-94.959 94.958h-43.594c-52.36 0-94.958-42.598-94.958-94.958v-53.881c0-46.688 37.983-84.671 84.671-84.671h64.167c46.688 0 84.672 37.983 84.672 84.671v53.881z"/></g></g></svg>