<svg height="512" viewBox="0 0 61 61" width="512" xmlns="http://www.w3.org/2000/svg"><g id="Page-1" fill="none" fill-rule="evenodd"><g id="041---Virus-Research" fill-rule="nonzero"><g id="Icons" transform="translate(1 1)"><path id="Shape" d="m47 24c.0054781 5.4116802-1.9038413 10.650796-5.39 14.79-.8582964 1.0182992-1.8017008 1.9617036-2.82 2.82-8.2598575 6.9355465-20.2296832 7.1999636-28.7877505.6359301-8.55806734-6.5640334-11.40547393-18.1932604-6.84808892-27.9686014 4.55738501-9.77534106 15.29533862-15.07090493 25.82506522-12.73597255 10.5297265 2.33493239 18.0226887 11.67314215 18.0207742 22.45864385z" fill="#9d9d9d"/><path id="Shape" d="m24 1c-.5 0-1 .022-1.5.054 8.6510337.56241446 16.2502364 5.9430848 19.654067 13.9162041s2.0335248 17.1829921-3.544067 23.8197959c-.8582964 1.0182992-1.8017008 1.9617036-2.82 2.82-3.7772665 3.1711583-8.4765023 5.0396306-13.4 5.328.533.036 1.069.062 1.611.062 5.4116802.0054781 10.650796-1.9038413 14.79-5.39 1.0182992-.8582964 1.9617036-1.8017008 2.82-2.82 5.748391-6.8460196 7.0093076-16.4026546 3.2332712-24.5053414-3.7760364-8.10268667-11.904921-13.28346063-20.8442712-13.2846586z" fill="#707070"/><path id="Shape" d="m24 5c10.4934102 0 19 8.5065898 19 19s-8.5065898 19-19 19-19-8.5065898-19-19c.0115735-10.4886126 8.5113874-18.9884265 19-19" fill="#02a8f3"/><path id="Shape" d="m24 5c-.506 0-1 .037-1.5.076 9.8781364.77398056 17.4992499 9.0155882 17.4992499 18.924s-7.6211135 18.1500194-17.4992499 18.924c.5.039.994.076 1.5.076 10.4934102 0 19-8.5065898 19-19s-8.5065898-19-19-19z" fill="#0377bb"/><path id="Shape" d="m58.38 55.55-2.83 2.83c-.4195478.4153582-.9914346.63992-1.5815066.6210074-.5900721-.0189126-1.1464049-.2796352-1.5384934-.7210074l-9.16-10.39c-.3785945-.4192966-.3609845-1.0620617.04-1.46l3.12-3.12c.3979383-.4009845 1.0407034-.4185945 1.46-.04l10.39 9.16c.4413722.3920885.7020948.9484213.7210074 1.5384934.0189126.590072-.2056492 1.1619588-.6210074 1.5815066z" fill="#ffdb00"/><path id="Shape" d="m58.28 52.43-10.39-9.16c-.4192966-.3785945-1.0620617-.3609845-1.46.04l-.7.7 9.55 8.42c.4413722.3920885.7020948.9484213.7210074 1.5384934.0189126.590072-.2056492 1.1619588-.6210074 1.5815066l-2.83 2.83c.8328305.8177274 2.1671695.8177274 3 0l2.83-2.83c.4153582-.4195478.63992-.9914346.6210074-1.5815066-.0189126-.5900721-.2796352-1.1464049-.7210074-1.5384934z" fill="#fdc008"/><path id="Shape" d="m46.28 43.46-2.82 2.82-4.67-4.67c1.0182992-.8582964 1.9617036-1.8017008 2.82-2.82z" fill="#7f8d93"/><circle id="Oval" cx="29" cy="28" fill="#9c27af" r="5"/><circle id="Oval" cx="18.5" cy="18.5" fill="#ffdb00" r="2.5"/></g><g id="Icons_copy"><path id="Shape" d="m10 26c-.55228475 0-1-.4477153-1-1 .01046962-8.8322157 7.1677843-15.98953038 16-16 .5522847 0 1 .44771525 1 1 0 .5522847-.4477153 1-1 1-7.7285595.0082673-13.9917327 6.2714405-14 14 0 .5522847-.4477153 1-1 1z" fill="#f4f4f4"/><g fill="#000"><path id="Shape" d="m49 25c.018588-11.1911349-7.6876049-20.91488344-18.5870602-23.45333178-10.8994553-2.53844835-22.1089062 2.77990712-27.03679248 12.82768218-4.92788628 10.047775-2.27061886 22.1670004 6.40923348 29.2311358 8.6798523 7.0641355 21.0861812 7.2044832 29.9236192.3385138l3.45 3.449c-.3067577.7297881-.1649893 1.5710508.364 2.16l9.16 10.389c.5785429.6492761 1.3987532 1.0318962 2.268 1.058h.09c.8301153-.0009263 1.6262434-.3298009 2.215-.915l2.829-2.829c.610769-.6065252.941861-1.4396888.914-2.3-.0272077-.8702701-.4103973-1.6912357-1.06-2.271l-10.377-9.154c-.5897528-.5339873-1.4350189-.6789569-2.169-.372l-3.45-3.449c3.2805612-4.2012984 5.0607625-9.3796177 5.057-14.71zm-46 0c0-12.1502645 9.8497355-22 22-22s22 9.8497355 22 22-9.8497355 22-22 22c-12.1445532-.0137772-21.98622284-9.8554468-22-22zm55.612 29.176c.239175.2119049.3796838.5135643.388.833.0105721.3114664-.1089923.6132759-.33.833l-2.828 2.829c-.2147126.2289184-.52087.3493257-.834.328-.3172226-.0070939-.617193-.1458483-.828-.383l-9.16-10.477 3.21-3.117zm-12.744-9.714-1.406 1.406-3.219-3.219c.4866667-.4486667.9553333-.9173333 1.406-1.406z"/><path id="Shape" d="m25 5c-11.045695 0-20 8.954305-20 20s8.954305 20 20 20 20-8.954305 20-20c-.0126747-11.0404407-8.9595593-19.98732534-20-20zm0 38c-9.9411255 0-18-8.0588745-18-18s8.0588745-18 18-18 18 8.0588745 18 18c-.0115721 9.9363282-8.0636718 17.9884279-18 18z"/><path id="Shape" d="m19.5 16c-1.9329966 0-3.5 1.5670034-3.5 3.5s1.5670034 3.5 3.5 3.5 3.5-1.5670034 3.5-3.5-1.5670034-3.5-3.5-3.5zm0 5c-.8284271 0-1.5-.6715729-1.5-1.5s.6715729-1.5 1.5-1.5 1.5.6715729 1.5 1.5-.6715729 1.5-1.5 1.5z"/><path id="Shape" d="m37 28h-1.09c-.0629509-.3710317-.1607161-.7353077-.292-1.088l.944-.546c.4742136-.2780058.6351286-.886647.3602745-1.3626943-.274854-.4760473-.8824145-.640996-1.3602745-.3693057l-.941.543c-.2414735-.2907229-.5092771-.5585265-.8-.8l.543-.941c.1814844-.3095704.1831833-.6926495.0044519-1.0038174-.1787315-.311168-.5104885-.5027136-.8693336-.5019247s-.6897567.1937913-.8671183.5057421l-.546.944c-.3521133-.1304823-.7157127-.2275761-1.086-.29v-1.09c0-.5522847-.4477153-1-1-1s-1 .4477153-1 1v1.09c-.3710317.0629509-.7353077.1607161-1.088.292l-.546-.944c-.1773616-.3119508-.5082732-.5049532-.8671183-.5057421s-.6906021.1907567-.8693336.5019247c-.1787314.3111679-.1770325.694247.0044519 1.0038174l.543.941c-.2907229.2414735-.5585265.5092771-.8.8l-.941-.543c-.47786-.2716903-1.0854205-.1067416-1.3602745.3693057-.2748541.4760473-.1139391 1.0846885.3602745 1.3626943l.944.546c-.1304823.3521133-.2275761.7157127-.29 1.086h-1.09c-.5522847 0-1 .4477153-1 1s.4477153 1 1 1h1.09c.0629509.3710317.1607161.7353077.292 1.088l-.944.546c-.3119508.1773616-.5049532.5082732-.5057421.8671183s.1907567.6906021.5019247.8693336c.3111679.1787314.694247.1770325 1.0038174-.0044519l.941-.543c.2414735.2907229.5092771.5585265.8.8l-.543.942c-.1814844.3095704-.1831833.6926495-.0044519 1.0038174.1787315.311168.5104885.5027136.8693336.5019247s.6897567-.1937913.8671183-.5057421l.546-.945c.3521133.1304823.7157127.2275761 1.086.29v1.09c0 .5522847.4477153 1 1 1s1-.4477153 1-1v-1.09c.3710317-.0629509.7353077-.1607161 1.088-.292l.546.945c.2780058.4742136.886647.6351286 1.3626943.3602745.4760473-.274854.640996-.8824145.3693057-1.3602745l-.543-.942c.2907229-.2414735.5585265-.5092771.8-.8l.941.543c.3095704.1814844.6926495.1831833 1.0038174.0044519.311168-.1787315.5027136-.5104885.5019247-.8693336s-.1937913-.6897567-.5057421-.8671183l-.944-.546c.1304823-.3521133.2275761-.7157127.29-1.086h1.09c.5522847 0 1-.4477153 1-1s-.4477153-1-1-1zm-7 5c-2.209139 0-4-1.790861-4-4s1.790861-4 4-4 4 1.790861 4 4-1.790861 4-4 4z"/><circle id="Oval" cx="29" cy="28" r="1"/><circle id="Oval" cx="16" cy="28" r="1"/><circle id="Oval" cx="14" cy="34" r="1"/><circle id="Oval" cx="20" cy="35" r="1"/><circle id="Oval" cx="28" cy="15" r="1"/><circle id="Oval" cx="35" cy="18" r="1"/></g></g></g></g></svg>