<?xml version="1.0"?>
<svg xmlns="http://www.w3.org/2000/svg" xmlns:xlink="http://www.w3.org/1999/xlink" xmlns:svgjs="http://svgjs.com/svgjs" version="1.1" width="512" height="512" x="0" y="0" viewBox="0 0 512 512" style="enable-background:new 0 0 512 512" xml:space="preserve" class=""><g transform="matrix(-1.8369701987210297e-16,-1,1,-1.8369701987210297e-16,-0.000029087066650390625,512.0001845359803)"><g xmlns="http://www.w3.org/2000/svg"><path d="m148.2 311.743h87.59v16.514h-87.59z" fill="#b6b1b7" transform="matrix(.707 -.707 .707 .707 -170.04 229.487)" data-original="#b6b1b7" style=""/><path d="m170.995 352.678-11.678-11.678-18.589 4.768-21.354 21.353c-9.675 9.675-14.443 20.593-4.768 30.268s25.361 9.675 35.036 0l21.353-21.353c6.45-6.451 6.45-16.908 0-23.358z" fill="#dad8db" data-original="#dad8db" style="" class=""/><path d="m159.38 341.063-.063-.063c-6.45-6.45-16.907-6.45-23.357 0l-21.354 21.353c-7.64 7.64-9.149 18.99-4.723 28.207z" fill="#c8c5c9" data-original="#c8c5c9" style="" class=""/><path d="m338.575 0c-44.718 0-85.483 16.926-116.238 44.72-35.115 31.735-53.009 77.64-53.009 128.699 0 95.777 73.471 167.581 169.247 167.581 51.058 0 96.963-16.227 128.699-51.342 27.795-30.755 44.721-71.52 44.721-116.238 0-95.778-77.643-173.42-173.42-173.42zm0 313.806c-77.534 0-140.387-62.853-140.387-140.387s62.854-140.387 140.387-140.387 140.387 62.853 140.387 140.387-62.853 140.387-140.387 140.387z" fill="#dad8db" data-original="#dad8db" style="" class=""/><path d="m291.092 84.833h16.516v41.29h-16.516z" fill="#ffd064" transform="matrix(-.866 .5 -.5 -.866 611.333 47.15)" data-original="#ffd064" style="" class=""/><circle cx="289.027" cy="87.599" fill="#ffe07d" r="8.258" data-original="#ffe07d" style="" class=""/><path d="m369.543 220.715h16.516v41.29h-16.516z" fill="#ffd064" transform="matrix(.866 -.5 .5 .866 -70.065 221.237)" data-original="#ffd064" style="" class=""/><circle cx="388.124" cy="259.24" fill="#ffe07d" r="8.258" data-original="#ffe07d" style="" class=""/><path d="m398.258 113.548h16.516v41.29h-16.516z" fill="#ffd064" transform="matrix(-.5 -.866 .866 -.5 493.56 553.344)" data-original="#ffd064" style="" class=""/><circle cx="424.396" cy="123.871" fill="#ffe07d" r="8.258" data-original="#ffe07d" style="" class=""/><path d="m262.376 192h16.516v41.29h-16.516z" fill="#ffd064" transform="matrix(.5 .866 -.866 .5 319.473 -128.054)" data-original="#ffd064" style="" class=""/><circle cx="252.755" cy="222.968" fill="#ffe07d" r="8.258" data-original="#ffe07d" style="" class=""/><path d="m369.543 84.833h16.516v41.29h-16.516z" fill="#ffd064" transform="matrix(.866 .5 -.5 .866 103.355 -174.769)" data-original="#ffd064" style="" class=""/><circle cx="388.124" cy="87.599" fill="#ffe07d" r="8.258" data-original="#ffe07d" style="" class=""/><path d="m291.092 220.715h16.516v41.29h-16.516z" fill="#ffd064" transform="matrix(-.866 -.5 .5 -.866 437.914 600.06)" data-original="#ffd064" style="" class=""/><circle cx="289.027" cy="259.24" fill="#ffe07d" r="8.258" data-original="#ffe07d" style="" class=""/><path d="m262.376 113.548h16.516v41.29h-16.516z" fill="#ffd064" transform="matrix(.5 -.866 .866 .5 19.102 301.473)" data-original="#ffd064" style="" class=""/><circle cx="252.755" cy="123.871" fill="#ffe07d" r="8.258" data-original="#ffe07d" style="" class=""/><path d="m398.258 192h16.516v41.29h-16.516z" fill="#ffd064" transform="matrix(-.5 .866 -.866 -.5 793.931 -33.086)" data-original="#ffd064" style="" class=""/><circle cx="424.396" cy="222.968" fill="#ffe07d" r="8.258" data-original="#ffe07d" style="" class=""/><path d="m408.769 152.774h16.516v41.29h-16.516z" fill="#ffd064" transform="matrix(0 1 -1 0 590.446 -243.608)" data-original="#ffd064" style="" class=""/><circle cx="437.672" cy="173.419" fill="#ffe07d" r="8.258" data-original="#ffe07d" style="" class=""/><path d="m251.866 152.774h16.516v41.29h-16.516z" fill="#ffd064" transform="matrix(0 -1 1 0 86.704 433.543)" data-original="#ffd064" style="" class=""/><circle cx="239.479" cy="173.419" fill="#ffe07d" r="8.258" data-original="#ffe07d" style="" class=""/><path d="m330.317 74.323h16.516v41.29h-16.516z" fill="#ffd064" data-original="#ffd064" style="" class=""/><circle cx="338.575" cy="74.323" fill="#ffe07d" r="8.258" data-original="#ffe07d" style="" class=""/><path d="m330.317 231.226h16.516v41.29h-16.516z" fill="#ffd064" transform="matrix(-1 0 0 -1 677.151 503.742)" data-original="#ffd064" style="" class=""/><circle cx="338.575" cy="272.516" fill="#ffe07d" r="8.258" data-original="#ffe07d" style="" class=""/><path d="m404.64 173.419c0 14.558-4.709 28.016-12.687 38.935-12.017 16.446-31.45 22.146-53.378 22.146-36.486 0-63.747-24.594-63.747-61.081 0-21.929 8.367-41.363 24.814-53.379 10.918-7.977 24.376-12.685 38.933-12.685 36.487 0 66.065 29.578 66.065 66.064z" fill="#f9565e" data-original="#ff8086" style="" class=""/><path d="m353.027 225.032c-36.486 0-66.065-29.578-66.065-66.065 0-14.553 4.708-28.011 12.68-38.928-16.453 12.016-27.132 31.446-27.132 53.379 0 36.486 29.578 66.065 66.065 66.065 21.933 0 41.362-10.677 53.378-27.13-10.916 7.974-24.373 12.679-38.926 12.679z" fill="#e5646e" data-original="#e5646e" style="" class=""/><g fill="#ffe07d"><path d="m338.575 156.903c-4.565 0-8.258-3.698-8.258-8.258v-8.258c0-4.56 3.694-8.258 8.258-8.258s8.258 3.698 8.258 8.258v8.258c0 4.561-3.693 8.258-8.258 8.258z" fill="#ffe07d" data-original="#ffe07d" style="" class=""/><path d="m338.575 214.71c-4.565 0-8.258-3.698-8.258-8.258v-8.258c0-4.56 3.694-8.258 8.258-8.258s8.258 3.698 8.258 8.258v8.258c0 4.56-3.693 8.258-8.258 8.258z" fill="#ffe07d" data-original="#ffe07d" style="" class=""/><path d="m371.608 181.677h-8.258c-4.565 0-8.258-3.698-8.258-8.258s3.694-8.258 8.258-8.258h8.258c4.565 0 8.258 3.698 8.258 8.258s-3.694 8.258-8.258 8.258z" fill="#ffe07d" data-original="#ffe07d" style="" class=""/><path d="m313.801 181.677h-8.258c-4.565 0-8.258-3.698-8.258-8.258s3.694-8.258 8.258-8.258h8.258c4.565 0 8.258 3.698 8.258 8.258s-3.693 8.258-8.258 8.258z" fill="#ffe07d" data-original="#ffe07d" style="" class=""/></g><path d="m350.962 334.452c-95.777 0-173.419-77.643-173.419-173.419 0-44.735 16.981-85.553 44.794-116.312-35.097 31.734-57.181 77.656-57.181 128.699 0 95.777 77.643 173.419 173.419 173.419 51.043 0 96.964-22.084 128.699-57.181-30.758 27.812-71.578 44.794-116.312 44.794z" fill="#c8c5c9" data-original="#c8c5c9" style="" class=""/><path d="m126.348 374.095-111.853 97.405-12.045 26.495c1.177 2.439 2.777 4.726 4.801 6.749 9.675 9.675 25.361 9.675 35.036 0l107.355-107.355z" fill="#9b959d" data-original="#9b959d" style="" class=""/><path d="m114.606 362.353-107.355 107.355c-7.64 7.64-9.232 19.073-4.806 28.29l123.903-123.902z" fill="#857e87" data-original="#857e87" style="" class=""/></g></g></svg>
