<?xml version="1.0"?>
<svg xmlns="http://www.w3.org/2000/svg" xmlns:xlink="http://www.w3.org/1999/xlink" xmlns:svgjs="http://svgjs.com/svgjs" version="1.1" width="512" height="512" x="0" y="0" viewBox="0 0 512 512" style="enable-background:new 0 0 512 512" xml:space="preserve" class=""><g transform="matrix(6.123233995736766e-17,-1,1,6.123233995736766e-17,-0.0000152587890625,511.99998474121094)"><g xmlns="http://www.w3.org/2000/svg"><path d="m147.76 403.743-92.76 92.623c-10.86 10.87-28.48 10.87-39.35 0-5.43-5.43-8.15-12.56-8.15-19.681 0-3.72.74-7.44 2.23-10.91 1.35-3.18 3.33-6.17 5.92-8.76l93.11-93.273 32.72 2.25 4.26.29z" fill="#99f5d2" data-original="#99f5d2" style=""/><path d="m147.76 403.743-92.76 92.623c-10.86 10.87-28.48 10.87-39.35 0-5.43-5.43-8.15-12.56-8.15-19.681 0-3.72.74-7.44 2.23-10.91 10.87 10.87 32.29 13.95 43.16 3.09l74.18-74.302 14.41-28.571 4.26.29z" fill="#69d8e4" data-original="#69d8e4" style="" class=""/><path d="m100.99 450.385-21.38 21.371-14.81-14.811-24.54-24.541 21.37-21.37 24.52 24.51z" fill="#ffffff" data-original="#4b6675" style="" class=""/><path d="m100.99 450.385-21.38 21.371-14.81-14.811 21.35-21.401z" fill="#cbcbcb" data-original="#294a59" style="" class=""/><path d="m504.51 204.577c0 108.843-88.24 197.076-197.08 197.076-4.78 0-9.52-.17-14.21-.51-102.21-7.28-182.86-92.503-182.86-196.566 0-103.883 80.38-188.996 182.34-196.536 4.86-.36 9.77-.54 14.73-.54 108.84 0 197.08 88.233 197.08 197.076z" fill="#ffffff" data-original="#4b6675" style="" class=""/><path d="m504.51 204.577c0 108.843-88.24 197.076-197.08 197.076-4.78 0-9.52-.17-14.21-.51 101.93-7.57 182.27-92.673 182.27-196.536 0-104.033-80.62-189.246-182.79-196.566 4.86-.36 9.77-.54 14.73-.54 108.84 0 197.08 88.233 197.08 197.076z" fill="#cbcbcb" data-original="#294a59" style="" class=""/><path d="m475.49 204.577c0 92.823-75.24 168.065-168.06 168.065-4.83 0-9.61-.2-14.33-.61-86.1-7.26-153.72-79.462-153.72-167.455 0-87.863 67.43-159.975 153.36-167.415 4.84-.43 9.74-.64 14.69-.64 92.82 0 168.06 75.242 168.06 168.055z" fill="#e4f4ff" data-original="#e4f4ff" style="" class=""/><path d="m475.49 204.577c0 92.823-75.24 168.065-168.06 168.065-4.83 0-9.61-.2-14.33-.61 85.94-7.44 153.37-79.553 153.37-167.425 0-87.983-67.62-160.185-153.73-167.445 4.84-.43 9.74-.64 14.69-.64 92.82 0 168.06 75.242 168.06 168.055z" fill="#c0eaf7" data-original="#c0eaf7" style="" class=""/><g><path d="m352.233 204.575c0 24.741-20.06 44.801-44.8 44.801-3.61 0-7.12-.43-10.49-1.24-19.68-4.72-34.31-22.431-34.31-43.561 0-21.081 14.56-38.761 34.17-43.531 3.41-.83 6.97-1.27 10.63-1.27 24.74 0 44.8 20.061 44.8 44.801z" fill="#ff2261" data-original="#ff2261" style=""/><path d="m352.233 204.575c0 24.741-20.06 44.801-44.8 44.801-3.61 0-7.12-.43-10.49-1.24 19.62-4.76 34.18-22.441 34.18-43.531 0-21.141-14.63-38.851-34.32-43.561 3.41-.83 6.97-1.27 10.63-1.27 24.74 0 44.8 20.061 44.8 44.801z" fill="#b7305d" data-original="#b7305d" style="" class=""/><path d="m325.683 111.393c0 10.08-8.17 18.251-18.25 18.251-3.32 0-6.44-.89-9.12-2.45-5.46-3.15-9.13-9.04-9.13-15.8s3.67-12.651 9.13-15.801c2.68-1.56 5.8-2.45 9.12-2.45 10.08-.001 18.25 8.169 18.25 18.25z" fill="#ff2261" data-original="#ff2261" style=""/><path d="m325.683 297.788c0 10.08-8.17 18.261-18.25 18.261-3.32 0-6.44-.89-9.12-2.46-5.46-3.14-9.13-9.04-9.13-15.801s3.67-12.65 9.13-15.801c2.68-1.56 5.8-2.45 9.12-2.45 10.08.001 18.25 8.171 18.25 18.251z" fill="#ff2261" data-original="#ff2261" style=""/><g fill="#b7305d"><path d="m307.433 93.142c-3.32 0-6.44.89-9.12 2.45 5.45 3.15 9.12 9.05 9.12 15.801v18.251c10.08 0 18.25-8.17 18.25-18.251s-8.17-18.251-18.25-18.251z" fill="#b7305d" data-original="#b7305d" style="" class=""/><path d="m307.433 279.538v18.251c0 6.75-3.67 12.65-9.12 15.801 2.68 1.57 5.8 2.46 9.12 2.46 10.08 0 18.25-8.18 18.25-18.261s-8.17-18.251-18.25-18.251z" fill="#b7305d" data-original="#b7305d" style="" class=""/><circle cx="399.631" cy="204.592" r="18.252" fill="#b7305d" data-original="#b7305d" style="" class=""/></g><circle cx="215.235" cy="204.592" fill="#ff2261" r="18.252" data-original="#ff2261" style=""/><circle cx="373.334" cy="138.689" fill="#b7305d" r="18.252" data-original="#b7305d" style="" class=""/><circle cx="241.532" cy="270.495" fill="#ff2261" r="18.252" data-original="#ff2261" style=""/><circle cx="235.489" cy="132.646" fill="#ff2261" r="28.002" data-original="#ff2261" style=""/><circle cx="380.233" cy="275.582" fill="#b7305d" r="28.002" data-original="#b7305d" style="" class=""/></g></g><g xmlns="http://www.w3.org/2000/svg"><path d="m150.666 265.7c-3.787 1.678-5.497 6.108-3.819 9.895 28.126 63.49 91.16 104.515 160.587 104.515 96.801 0 175.554-78.751 175.554-175.549s-78.753-175.549-175.554-175.549-175.555 78.751-175.555 175.549c0 12.84 1.394 25.651 4.143 38.079.896 4.044 4.893 6.6 8.943 5.703 4.044-.895 6.598-4.899 5.703-8.943-2.515-11.366-3.789-23.087-3.789-34.839 0-88.527 72.024-160.549 160.555-160.549 88.529 0 160.554 72.022 160.554 160.549s-72.024 160.549-160.554 160.549c-63.497 0-121.148-37.521-146.872-95.59-1.678-3.788-6.11-5.499-9.896-3.82z" fill="#000000" data-original="#000000" style="" class=""/><path d="m495.921 124.934c-1.614-3.816-6.015-5.599-9.829-3.986-3.814 1.614-5.6 6.015-3.985 9.83 9.883 23.365 14.894 48.19 14.894 73.783 0 104.524-85.039 189.56-189.566 189.56s-189.567-85.036-189.567-189.56c-.002-104.524 85.038-189.561 189.566-189.561 64.862 0 124.538 32.628 159.633 87.28 2.238 3.485 6.876 4.496 10.363 2.258 3.485-2.238 4.496-6.878 2.258-10.364-37.868-58.968-102.261-94.174-172.254-94.174-112.799 0-204.568 91.766-204.568 204.561 0 53.714 20.811 102.659 54.793 139.196l-14.811 14.811-33.571-2.306c-2.177-.149-4.331.664-5.867 2.23l-11.036 11.248c-2.901 2.957-2.855 7.705.101 10.606 2.957 2.902 7.705 2.857 10.606-.101l8.616-8.782 26.91 1.848 1.486 27.494-39.069 39.011-28.784-28.783 6.144-6.144c2.93-2.929 2.93-7.678.001-10.607-2.929-2.928-7.678-2.929-10.606 0l-57.431 57.428c-6.673 6.672-10.348 15.543-10.348 24.979s3.675 18.308 10.348 24.98c6.887 6.888 15.933 10.331 24.98 10.331 9.045 0 18.091-3.443 24.975-10.327l92.76-92.62c1.509-1.506 2.306-3.584 2.19-5.713l-1.845-34.12 14.859-14.859c36.535 33.962 85.467 54.76 139.166 54.76 112.798.001 204.567-91.765 204.567-204.56 0-27.612-5.41-54.402-16.079-79.627zm-405.511 325.48-10.775 10.759-28.769-28.768 10.768-10.767zm-40.709 40.648c-7.926 7.925-20.822 7.925-28.748 0-3.839-3.839-5.953-8.943-5.953-14.373 0-5.429 2.114-10.534 5.953-14.372l19.306-19.305 28.761 28.76z" fill="#000000" data-original="#000000" style="" class=""/><path d="m255.667 197.112h-15.789c-3.213-10.562-13.044-18.269-24.642-18.269-14.199 0-25.752 11.553-25.752 25.752s11.553 25.752 25.752 25.752c11.585 0 21.407-7.691 24.632-18.235h15.809c1.277 8.814 4.76 16.923 9.869 23.748l-11.898 11.899c-3.684-1.969-7.819-3.014-12.115-3.014-6.879 0-13.346 2.679-18.208 7.543-4.864 4.864-7.543 11.331-7.543 18.21s2.679 13.346 7.542 18.21 11.33 7.543 18.209 7.543 13.346-2.679 18.209-7.542c.001 0 .001 0 .001-.001 8.198-8.2 9.701-20.599 4.509-30.338l11.901-11.902c6.833 5.116 14.954 8.601 23.781 9.875v16.816c-10.553 3.219-18.252 13.046-18.252 24.638 0 14.2 11.553 25.752 25.752 25.752s25.751-11.553 25.751-25.752c0-11.592-7.698-21.419-18.251-24.638v-16.816c8.818-1.272 16.932-4.752 23.761-9.86l10.989 10.989c-3.229 5.424-4.953 11.637-4.953 18.115 0 9.483 3.693 18.399 10.398 25.104h.001c6.921 6.921 16.012 10.382 25.103 10.382 9.092 0 18.183-3.461 25.104-10.382 6.705-6.706 10.398-15.621 10.398-25.104 0-9.484-3.693-18.399-10.398-25.104-12.345-12.346-31.595-13.681-45.434-4.005l-10.597-10.597c5.117-6.829 8.605-14.945 9.884-23.767h15.809c3.224 10.544 13.046 18.235 24.632 18.235 14.199 0 25.752-11.553 25.752-25.752s-11.553-25.752-25.752-25.752c-11.598 0-21.428 7.707-24.642 18.269h-15.789c-1.269-8.84-4.757-16.973-9.879-23.815l11.885-11.885c3.776 2.013 7.953 3.021 12.129 3.021 6.594 0 13.188-2.51 18.208-7.53h.001c4.863-4.864 7.542-11.331 7.542-18.21s-2.679-13.346-7.542-18.21c-10.041-10.04-26.377-10.041-36.418 0-4.864 4.864-7.543 11.331-7.543 18.21 0 4.295 1.045 8.43 3.014 12.115l-11.883 11.883c-6.833-5.116-14.954-8.601-23.78-9.875v-16.783c10.552-3.219 18.251-13.046 18.251-24.638 0-14.2-11.552-25.752-25.751-25.752s-25.752 11.553-25.752 25.752c0 11.592 7.699 21.419 18.252 24.638v16.783c-8.835 1.274-16.963 4.765-23.8 9.889l-10.808-10.808c8.87-13.746 7.293-32.325-4.732-44.352-6.706-6.706-15.621-10.399-25.104-10.399s-18.398 3.693-25.104 10.399c-13.842 13.843-13.842 36.366 0 50.209 6.705 6.705 15.62 10.398 25.104 10.398 6.927 0 13.55-1.971 19.231-5.646l10.811 10.811c-5.115 6.835-8.598 14.961-9.865 23.793zm-40.432 18.235c-5.929 0-10.752-4.823-10.752-10.752s4.823-10.752 10.752-10.752c5.928 0 10.751 4.823 10.751 10.752s-4.823 10.752-10.751 10.752zm33.901 62.754c-2.031 2.031-4.731 3.15-7.604 3.15s-5.571-1.118-7.602-3.149-3.149-4.731-3.149-7.603 1.118-5.572 3.149-7.603c2.03-2.03 4.729-3.149 7.602-3.149s5.572 1.119 7.603 3.15c4.191 4.19 4.191 11.011.001 15.204zm69.049 19.695c0 5.928-4.823 10.752-10.751 10.752-5.929 0-10.752-4.823-10.752-10.752s4.823-10.752 10.752-10.752c5.927 0 10.751 4.824 10.751 10.752zm76.545-36.708c3.872 3.872 6.005 9.021 6.005 14.498 0 5.476-2.133 10.625-6.005 14.498-7.993 7.993-21 7.994-28.995 0h.001c-3.873-3.873-6.006-9.021-6.006-14.498s2.133-10.625 6.006-14.498c7.993-7.994 21.001-7.993 28.994 0zm4.901-67.244c5.929 0 10.752 4.823 10.752 10.752s-4.823 10.752-10.752 10.752c-5.928 0-10.751-4.823-10.751-10.752s4.823-10.752 10.751-10.752zm-33.899-62.754c2.096-2.096 4.849-3.144 7.602-3.144 2.754 0 5.507 1.048 7.604 3.145 2.03 2.03 3.148 4.73 3.148 7.602s-1.118 5.572-3.148 7.602c-4.191 4.192-11.012 4.193-15.205 0-2.031-2.031-3.149-4.731-3.149-7.603-.001-2.872 1.117-5.572 3.148-7.602zm-69.05-19.696c0-5.928 4.823-10.752 10.752-10.752 5.928 0 10.751 4.823 10.751 10.752 0 5.928-4.823 10.752-10.751 10.752-5.929 0-10.752-4.823-10.752-10.752zm10.752 55.885c20.566 0 37.298 16.732 37.298 37.3 0 20.567-16.731 37.299-37.298 37.299s-37.299-16.732-37.299-37.299 16.732-37.3 37.299-37.3zm-86.441-20.133c-7.994-7.994-7.994-21.001 0-28.995 3.872-3.873 9.02-6.005 14.496-6.005s10.625 2.133 14.497 6.005c7.993 7.994 7.993 21.001.001 28.995-3.873 3.872-9.021 6.005-14.498 6.005s-10.624-2.133-14.496-6.005z" fill="#000000" data-original="#000000" style="" class=""/><path d="m290.26 194.187c.18.45.42.89.69 1.29.27.41.58.8.93 1.14 1.4 1.4 3.33 2.2 5.3 2.2 1.98 0 3.91-.8 5.311-2.2 1.39-1.4 2.189-3.33 2.189-5.3 0-1.98-.8-3.91-2.189-5.31-1.4-1.39-3.33-2.19-5.311-2.19-1.97 0-3.899.8-5.3 2.19-.35.35-.66.73-.93 1.14-.271.41-.511.85-.69 1.3-.19.45-.33.92-.43 1.4-.101.49-.15.98-.15 1.47s.05.98.15 1.46.239.95.43 1.41z" fill="#000000" data-original="#000000" style="" class=""/><path d="m301.439 211.697c-.479.1-.949.24-1.399.43s-.891.42-1.3.69c-.41.27-.79.58-1.141.93-.34.35-.66.73-.93 1.14-.271.41-.5.84-.69 1.29-.189.46-.33.93-.43 1.41-.09.48-.14.97-.14 1.46 0 1.98.8 3.91 2.189 5.31.351.34.73.66 1.141.93.409.27.85.5 1.3.69s.92.33 1.399.43c.49.09.98.14 1.471.14.489 0 .979-.05 1.46-.14.479-.1.949-.24 1.41-.43.449-.19.88-.42 1.289-.69.41-.27.801-.59 1.141-.93 1.399-1.4 2.2-3.33 2.2-5.31 0-.49-.051-.98-.15-1.46s-.24-.95-.43-1.41c-.181-.45-.42-.88-.69-1.29s-.58-.79-.93-1.14c-.34-.35-.73-.66-1.141-.93-.409-.27-.84-.5-1.289-.69-.461-.19-.931-.33-1.41-.43-.959-.2-1.959-.19-2.93 0z" fill="#000000" data-original="#000000" style="" class=""/><path d="m316.399 205.877c.181.46.42.89.69 1.3s.58.79.93 1.14c1.4 1.39 3.33 2.2 5.3 2.2.49 0 .98-.05 1.471-.15.479-.1.95-.24 1.399-.43.45-.19.891-.42 1.29-.69.42-.27.801-.59 1.141-.93.35-.35.66-.73.939-1.14.271-.41.5-.84.69-1.3.189-.45.33-.92.43-1.4.09-.48.14-.98.14-1.47 0-.48-.05-.98-.14-1.46-.1-.48-.24-.95-.43-1.4-.19-.46-.42-.89-.69-1.3-.279-.41-.59-.79-.939-1.14-.34-.34-.721-.66-1.141-.93-.399-.27-.84-.5-1.29-.69-.449-.19-.92-.33-1.399-.43-.971-.19-1.971-.19-2.931 0-.479.1-.949.24-1.409.43-.45.19-.891.42-1.29.69-.41.27-.801.59-1.141.93-.35.35-.66.73-.93 1.14-.271.41-.51.84-.69 1.3-.189.45-.34.92-.43 1.4-.1.48-.15.98-.15 1.46 0 .49.051.99.15 1.47.091.48.241.95.43 1.4z" fill="#000000" data-original="#000000" style="" class=""/></g></g></svg>
